<svg width="122" height="48" viewBox="0 0 122 48" fill="none" xmlns="http://www.w3.org/2000/svg">
<path d="M1 16.46V15.96H0.5V16.46H1ZM117.44 16.46H117.94V15.96H117.44V16.46ZM117.44 18.49V18.99H117.94V18.49H117.44ZM1 18.49H0.5V18.99H1V18.49ZM115.82 16.46L115.372 16.6818C115.457 16.8528 115.631 16.9608 115.822 16.96C116.013 16.9592 116.187 16.8498 116.27 16.6781L115.82 16.46ZM117.23 14.5V15H117.73V14.5H117.23ZM114.41 14.5H113.91V15H114.41V14.5ZM113.53 13.41L113.394 13.8912L114.031 14.0713L114.03 13.4089L113.53 13.41ZM118.11 13.41H117.61V14.0709L118.246 13.8912L118.11 13.41ZM118.11 8.85001H118.61V8.35001H118.11V8.85001ZM113.52 8.85001V8.35001H113.019L113.02 8.8511L113.52 8.85001ZM120.81 4.73001H121.31C121.31 4.58217 121.245 4.44191 121.131 4.34691L120.81 4.73001ZM120.81 7.49002L121.164 7.84358C121.257 7.74981 121.31 7.62263 121.31 7.49002H120.81ZM110.86 4.73001L110.539 4.34692C110.425 4.44192 110.36 4.58218 110.36 4.73001H110.86ZM110.86 7.49002H110.36C110.36 7.62198 110.412 7.74859 110.505 7.84225L110.86 7.49002ZM119.26 8.39999C119.26 8.67614 119.484 8.89999 119.76 8.89999C120.036 8.89999 120.26 8.67614 120.26 8.39999H119.26ZM119.76 1.56H120.26C120.26 1.28386 120.036 1.06 119.76 1.06V1.56ZM118.49 1.56H117.99C117.99 1.83614 118.214 2.06 118.49 2.06V1.56ZM118.49 1H118.99C118.99 0.723858 118.766 0.5 118.49 0.5V1ZM117.23 1V0.5C116.954 0.5 116.73 0.723858 116.73 1H117.23ZM117.23 1.56V2.06C117.506 2.06 117.73 1.83614 117.73 1.56H117.23ZM114.41 1.56H113.91C113.91 1.83614 114.134 2.06 114.41 2.06V1.56ZM114.41 1H114.91C114.91 0.723858 114.686 0.5 114.41 0.5V1ZM113.16 1V0.5C112.884 0.5 112.66 0.723858 112.66 1H113.16ZM113.16 1.56V2.06C113.436 2.06 113.66 1.83614 113.66 1.56H113.16ZM111.88 1.56V1.06C111.604 1.06 111.38 1.28386 111.38 1.56H111.88ZM111.38 8.39999C111.38 8.67614 111.604 8.89999 111.88 8.89999C112.156 8.89999 112.38 8.67614 112.38 8.39999H111.38ZM56.69 22.11V21.61H56.19V22.11H56.69ZM57.75 22.11H58.25V21.61H57.75V22.11ZM57.75 35.18V35.68H58.25V35.18H57.75ZM56.69 35.18H56.19V35.68H56.69V35.18ZM116.43 23.08V22.58H115.93V23.08H116.43ZM117.49 23.08H117.99V22.58H117.49V23.08ZM117.49 36.95V37.45H117.99V36.95H117.49ZM116.43 36.95H115.93V37.45H116.43V36.95ZM1 16.96H117.44V15.96H1V16.96ZM116.94 16.46V18.49H117.94V16.46H116.94ZM117.44 17.99H1V18.99H117.44V17.99ZM1.5 18.49V16.46H0.5V18.49H1.5ZM114.402 14.7218L115.372 16.6818L116.268 16.2382L115.298 14.2782L114.402 14.7218ZM116.27 16.6781L117.22 14.7181L116.32 14.2819L115.37 16.2419L116.27 16.6781ZM116.73 8.89001V14.5H117.73V8.89001H116.73ZM117.23 14H114.41V15H117.23V14ZM114.91 14.5V8.89001H113.91V14.5H114.91ZM113.666 12.9288C113.226 12.8046 112.83 12.6512 112.555 12.4884C112.417 12.4067 112.331 12.3354 112.285 12.2825C112.24 12.2306 112.26 12.2287 112.26 12.27H111.26C111.26 12.5464 111.386 12.7719 111.529 12.9372C111.672 13.1015 111.856 13.237 112.045 13.3491C112.425 13.5738 112.914 13.7554 113.394 13.8912L113.666 12.9288ZM112.26 12.27C112.26 10.2783 112.621 8.77484 113.242 7.78605C113.847 6.82419 114.706 6.33002 115.82 6.33002V5.33002C114.344 5.33002 113.173 6.01585 112.395 7.25398C111.634 8.4652 111.26 10.1818 111.26 12.27H112.26ZM115.82 6.33002C116.934 6.33002 117.793 6.82419 118.398 7.78605C119.019 8.77484 119.38 10.2783 119.38 12.27H120.38C120.38 10.1818 120.006 8.4652 119.245 7.25398C118.467 6.01585 117.296 5.33002 115.82 5.33002V6.33002ZM119.38 12.27C119.38 12.2237 119.402 12.2241 119.356 12.2775C119.309 12.3309 119.223 12.403 119.084 12.4854C118.809 12.6495 118.412 12.8051 117.974 12.9288L118.246 13.8912C118.728 13.7549 119.216 13.5705 119.596 13.3446C119.785 13.2321 119.968 13.0966 120.11 12.9338C120.252 12.771 120.38 12.5463 120.38 12.27H119.38ZM118.61 13.41V8.85001H117.61V13.41H118.61ZM118.11 8.35001H113.52V9.35001H118.11V8.35001ZM113.02 8.8511L113.03 13.4111L114.03 13.4089L114.02 8.84891L113.02 8.8511ZM119.559 4.33311L120.489 5.11311L121.131 4.34691L120.201 3.56691L119.559 4.33311ZM120.31 4.73001V7.49002H121.31V4.73001H120.31ZM120.456 7.13646L119.106 8.48644L119.814 9.19355L121.164 7.84358L120.456 7.13646ZM111.469 3.56692L110.539 4.34692L111.181 5.11311L112.111 4.33311L111.469 3.56692ZM110.36 4.73001V7.49002H111.36V4.73001H110.36ZM110.505 7.84225L111.835 9.18224L112.545 8.47779L111.215 7.1378L110.505 7.84225ZM120.26 8.39999V1.56H119.26V8.39999H120.26ZM119.76 1.06H118.49V2.06H119.76V1.06ZM118.99 1.56V1H117.99V1.56H118.99ZM118.49 0.5H117.23V1.5H118.49V0.5ZM116.73 1V1.56H117.73V1H116.73ZM117.23 1.06H114.41V2.06H117.23V1.06ZM114.91 1.56V1H113.91V1.56H114.91ZM114.41 0.5H113.16V1.5H114.41V0.5ZM112.66 1V1.56H113.66V1H112.66ZM113.16 1.06H111.88V2.06H113.16V1.06ZM111.38 1.56V8.39999H112.38V1.56H111.38ZM56.69 22.61H57.75V21.61H56.69V22.61ZM57.25 22.11V35.18H58.25V22.11H57.25ZM57.75 34.68H56.69V35.68H57.75V34.68ZM57.19 35.18V22.11H56.19V35.18H57.19ZM116.43 23.58H117.49V22.58H116.43V23.58ZM116.99 23.08V36.95H117.99V23.08H116.99ZM117.49 36.45H116.43V37.45H117.49V36.45ZM116.93 36.95V23.08H115.93V36.95H116.93ZM62.89 23.08V28.21H63.89V23.08H62.89ZM88.42 23.08V28.21H89.42V23.08H88.42ZM99.73 23.44V28.56H100.73V23.44H99.73ZM103.26 23.44V28.56H104.26V23.44H103.26ZM65.78 26.5H70.28V25.5H65.78V26.5ZM71.87 26.5H76.38V25.5H71.87V26.5ZM72.1 33.3H76.34V32.3H72.1V33.3ZM77.58 33.3H81.82V32.3H77.58V33.3ZM83.06 33.3H87.3V32.3H83.06V33.3ZM88.54 33.3H92.78V32.3H88.54V33.3ZM94.02 33.3H98.26V32.3H94.02V33.3ZM99.5 33.3H103.74V32.3H99.5V33.3ZM104.98 33.3H109.22V32.3H104.98V33.3ZM110.46 33.3H114.7V32.3H110.46V33.3ZM66.62 33.3H70.86V32.3H66.62V33.3ZM91.66 26.5H96.16V25.5H91.66V26.5ZM77.88 26.5H82.39V25.5H77.88V26.5ZM83.44 26.5H87.42V25.5H83.44V26.5ZM61.41 33.3H65.38V32.3H61.41V33.3ZM72.1 38.24H76.34V37.24H72.1V38.24ZM77.58 38.24H81.82V37.24H77.58V38.24ZM83.06 38.24H87.3V37.24H83.06V38.24ZM88.54 38.24H92.78V37.24H88.54V38.24ZM94.02 38.24H98.26V37.24H94.02V38.24ZM99.5 38.24H103.74V37.24H99.5V38.24ZM104.98 38.24H109.22V37.24H104.98V38.24ZM110.46 38.24H114.7V37.24H110.46V38.24ZM66.62 38.24H70.86V37.24H66.62V38.24ZM61.41 38.24H65.38V37.24H61.41V38.24ZM72.37 43.02H76.61V42.02H72.37V43.02ZM77.85 43.02H82.09V42.02H77.85V43.02ZM83.33 43.02H87.57V42.02H83.33V43.02ZM88.81 43.02H93.05V42.02H88.81V43.02ZM94.29 43.02H98.53V42.02H94.29V43.02ZM99.77 43.02H104.01V42.02H99.77V43.02ZM105.25 43.02H109.49V42.02H105.25V43.02ZM110.73 43.02H114.97V42.02H110.73V43.02ZM66.89 43.02H71.13V42.02H66.89V43.02ZM61.67 43.02H65.65V42.02H61.67V43.02ZM72.63 47.87H76.87V46.87H72.63V47.87ZM78.11 47.87H82.35V46.87H78.11V47.87ZM67.15 47.87H71.39V46.87H67.15V47.87ZM61.94 47.87H65.91V46.87H61.94V47.87Z" fill="#F8F8F8"/>
</svg>
