<svg width="94" height="177" viewBox="0 0 94 177" fill="none" xmlns="http://www.w3.org/2000/svg">
<path d="M2.52406 96.517L4.06877 28.922L7.18579 96.517L7.22716 28.922L10.3718 96.517V28.922L13.5577 96.517L13.5163 28.922L16.7437 96.517L16.6609 28.922L19.9297 96.517L19.8055 28.922L23.1156 96.517L22.9639 28.922L26.3016 96.517M87.8558 96.517L89.1799 28.922L91.8004 96.517M0 25.9982H3.8342M4.96461 25.9982H8.78504M9.5723 25.9982H13.3927M9.5723 22.5226H13.3927M6.88257 20.6743V24.1499M86.4901 25.6396H91.9794M88.2828 0V3.9997M88.2828 5.32389V8.96498M88.2828 10.275V13.9299M88.2828 14.8817V18.5228M91.4547 0V3.64113M91.4547 5.32389V8.96498M91.4547 10.275V14.2885M91.4547 15.2403V18.8814M88.2828 19.4881V23.8464M1.20007 28.922H92.6416V96.517H1.20007V28.922ZM1.55834 108.875H92.9999V176.47H1.55834V108.875ZM69.3328 141.562C69.3328 153.376 59.7555 162.953 47.9412 162.953C36.127 162.953 26.5498 153.376 26.5498 141.562C26.5498 129.748 36.127 120.17 47.9412 120.17C59.7555 120.17 69.3328 129.748 69.3328 141.562Z" stroke="#F8F8F8" stroke-miterlimit="10"/>
</svg>
