<svg width="122" height="50" viewBox="0 0 122 50" fill="none" xmlns="http://www.w3.org/2000/svg">
<path d="M46.5205 26.2421C45.9682 26.2421 45.5205 26.6898 45.5205 27.2421C45.5205 27.7943 45.9682 28.2421 46.5205 28.2421V26.2421ZM75.924 28.2421C76.4763 28.2421 76.924 27.7943 76.924 27.2421C76.924 26.6898 76.4763 26.2421 75.924 26.2421V28.2421ZM61.9705 29.55C61.9705 28.9977 61.5228 28.55 60.9705 28.55C60.4182 28.55 59.9705 28.9977 59.9705 29.55H61.9705ZM59.9705 32.0132C59.9705 32.5655 60.4182 33.0132 60.9705 33.0132C61.5228 33.0132 61.9705 32.5655 61.9705 32.0132H59.9705ZM22.6569 1.79504C22.6569 1.24276 22.2092 0.795042 21.6569 0.795042C21.1046 0.795042 20.6569 1.24276 20.6569 1.79504H22.6569ZM20.6569 12.0552C20.6569 12.6075 21.1046 13.0552 21.6569 13.0552C22.2092 13.0552 22.6569 12.6075 22.6569 12.0552H20.6569ZM22.6569 22.4126C22.6569 21.8603 22.2092 21.4126 21.6569 21.4126C21.1046 21.4126 20.6569 21.8603 20.6569 22.4126H22.6569ZM20.6569 31.6642C20.6569 32.2165 21.1046 32.6642 21.6569 32.6642C22.2092 32.6642 22.6569 32.2165 22.6569 31.6642H20.6569ZM101.305 23.5955C101.305 23.0432 100.857 22.5955 100.305 22.5955C99.7526 22.5955 99.3049 23.0432 99.3049 23.5955H101.305ZM99.3049 33.0217C99.3049 33.574 99.7526 34.0217 100.305 34.0217C100.857 34.0217 101.305 33.574 101.305 33.0217H99.3049ZM101.286 3.40501C101.286 2.85273 100.838 2.40501 100.286 2.40501C99.7337 2.40501 99.286 2.85273 99.286 3.40501H101.286ZM99.286 13.0834C99.286 13.6357 99.7337 14.0834 100.286 14.0834C100.838 14.0834 101.286 13.6357 101.286 13.0834H99.286ZM119.941 27.8237C119.941 38.6795 111.141 47.4799 100.285 47.4799V49.4799C112.246 49.4799 121.941 39.7841 121.941 27.8237H119.941ZM100.285 47.4799C89.4295 47.4799 80.6291 38.6795 80.6291 27.8237H78.6291C78.6291 39.7841 88.3249 49.4799 100.285 49.4799V47.4799ZM80.6291 27.8237C80.6291 16.9679 89.4294 8.16761 100.285 8.16761V6.16761C88.3249 6.16761 78.6291 15.8634 78.6291 27.8237H80.6291ZM100.285 8.16761C111.141 8.16761 119.941 16.9679 119.941 27.8237H121.941C121.941 15.8634 112.246 6.16761 100.285 6.16761V8.16761ZM41.3122 27.8237C41.3122 38.6795 32.5119 47.4799 21.6561 47.4799V49.4799C33.6165 49.4799 43.3122 39.7841 43.3122 27.8237H41.3122ZM21.6561 47.4799C10.8003 47.4799 2 38.6795 2 27.8237H0C0 39.7841 9.69576 49.4799 21.6561 49.4799V47.4799ZM2 27.8237C2 16.9679 10.8003 8.16761 21.6561 8.16761V6.16761C9.69576 6.16761 0 15.8634 0 27.8237H2ZM21.6561 8.16761C32.5119 8.16761 41.3122 16.9679 41.3122 27.8237H43.3122C43.3122 15.8634 33.6165 6.16761 21.6561 6.16761V8.16761ZM46.5205 28.2421H75.924V26.2421H46.5205V28.2421ZM59.9705 29.55V32.0132H61.9705V29.55H59.9705ZM20.6569 1.79504V12.0552H22.6569V1.79504H20.6569ZM20.6569 22.4126V31.6642H22.6569V22.4126H20.6569ZM99.3049 23.5955V33.0217H101.305V23.5955H99.3049ZM99.286 3.40501V13.0834H101.286V3.40501H99.286ZM101.186 2.90077C101.186 3.39825 100.783 3.80149 100.285 3.80149V5.80149C101.887 5.80149 103.186 4.50281 103.186 2.90077H101.186ZM100.285 3.80149C99.7876 3.80149 99.3843 3.3982 99.3843 2.90077H97.3843C97.3843 4.50285 98.6831 5.80149 100.285 5.80149V3.80149ZM99.3843 2.90077C99.3843 2.4033 99.7876 2 100.285 2V0C98.6831 0 97.3843 1.29873 97.3843 2.90077H99.3843ZM100.285 2C100.783 2 101.186 2.40326 101.186 2.90077H103.186C103.186 1.29877 101.887 0 100.285 0V2ZM101.226 24.0998C101.226 24.5973 100.822 25.0005 100.325 25.0005V27.0005C101.927 27.0005 103.226 25.7019 103.226 24.0998H101.226ZM100.325 25.0005C99.8274 25.0005 99.4241 24.5973 99.4241 24.0998H97.4241C97.4241 25.7019 98.7228 27.0005 100.325 27.0005V25.0005ZM99.4241 24.0998C99.4241 23.6023 99.8274 23.1991 100.325 23.1991V21.1991C98.7227 21.1991 97.4241 22.4978 97.4241 24.0998H99.4241ZM100.325 23.1991C100.822 23.1991 101.226 23.6024 101.226 24.0998H103.226C103.226 22.4978 101.927 21.1991 100.325 21.1991V23.1991ZM22.5568 22.4127C22.5568 22.9101 22.1535 23.3134 21.656 23.3134V25.3134C23.258 25.3134 24.5568 24.0148 24.5568 22.4127H22.5568ZM21.656 23.3134C21.1585 23.3134 20.7552 22.9101 20.7552 22.4127H18.7552C18.7552 24.0148 20.054 25.3134 21.656 25.3134V23.3134ZM20.7552 22.4127C20.7552 21.9152 21.1585 21.5119 21.656 21.5119V19.5119C20.054 19.5119 18.7552 20.8106 18.7552 22.4127H20.7552ZM21.656 21.5119C22.1535 21.5119 22.5568 21.9152 22.5568 22.4127H24.5568C24.5568 20.8106 23.258 19.5119 21.656 19.5119V21.5119ZM22.5568 11.8806C22.5568 12.378 22.1535 12.7813 21.656 12.7813V14.7813C23.258 14.7813 24.5568 13.4826 24.5568 11.8806H22.5568ZM21.656 12.7813C21.1585 12.7813 20.7552 12.378 20.7552 11.8806H18.7552C18.7552 13.4826 20.054 14.7813 21.656 14.7813V12.7813ZM20.7552 11.8806C20.7552 11.3831 21.1585 10.9799 21.656 10.9799V8.97985C20.054 8.97985 18.7552 10.2785 18.7552 11.8806H20.7552ZM21.656 10.9799C22.1535 10.9799 22.5568 11.3831 22.5568 11.8806H24.5568C24.5568 10.2785 23.258 8.97985 21.656 8.97985V10.9799Z" fill="#F8F8F8"/>
</svg>
