<svg width="293" height="195" viewBox="0 0 293 195" fill="none" xmlns="http://www.w3.org/2000/svg">
<path d="M81.85 97.41H291.74M291.74 96.43V98.43M77.23 94.42L81.47 97.31M69.68 89.31L75.91 93.52M64.29 85.66L65.35 86.38M62.78 84.63L63.84 85.35M61.28 83.62L62.28 84.33M55.4 79.64L56.45 80.35M46.99 73.94L47.99 74.66M45.51 72.95L46.56 73.67M43.56 71.62L44.61 72.34M42.05 70.61L43.05 71.33M39.81 69.09L40.86 69.81M36.79 67.05L37.85 67.76M53.63 78.44L54.68 79.16M52.12 77.45L53.17 78.17M65.68 87.36L66.05 86.85L66.43 86.35M66.37 87.83L66.74 87.32L67.12 86.81M67.02 88.23L67.4 87.72L67.77 87.21M67.67 88.71L68.05 88.2L68.42 87.69M60.22 83.66L60.59 83.16L60.96 82.65M59.5 83.23L60.24 82.21M58.84 82.73L59.58 81.71M58.18 82.28L58.55 81.77L58.92 81.27M57.52 81.83L57.89 81.33L58.26 80.82M56.82 81.36L57.19 80.85L57.56 80.35M51.12 77.51L51.49 77L51.86 76.5M50.46 77.06L51.2 76.04M49.79 76.61L50.16 76.1L50.54 75.59M49.12 76.14L49.49 75.64L49.86 75.13M48.44 75.69L48.81 75.19L49.19 74.68M41.12 70.76L41.5 70.25L41.87 69.75M38.92 69.23L39.3 68.73L39.67 68.22M38.12 68.73L38.49 68.22L38.87 67.72M69.79 90.14L70.53 89.12M133.25 31.63L81.56 97.44M81.56 97.44L78.25 75.12M81.56 97.44L78.41 129.92M81.56 97.44L97.41 93.54M81.56 97.44L83.42 92.79M81.56 97.44L83.02 95.86M81.56 97.44L82.95 98.96M81.56 97.44L76.95 98.9M130.67 33.91L131.67 34.65M133.4 30.43L134.4 31.17M134.01 29.66L135.01 30.41M134.57 28.94L135.57 29.69M135.12 28.23L136.12 28.98M137.81 24.82L138.81 25.56M139.75 22.35L140.75 23.1M140.31 21.64L141.31 22.39M140.85 20.95L141.85 21.69M141.43 20.23L142.43 20.98M142.04 19.44L143.04 20.19M146.42 13.86L147.42 14.61M146.98 13.15L147.98 13.9M147.57 12.4L148.57 13.15M149.45 10.02L150.45 10.76M153.83 4.43002L154.83 5.18002M154.39 3.73001L155.39 4.48001M155 2.95001L156 3.70001M155.56 2.23001L156.56 2.98001M156.56 2L157.34 1M153.12 6.43002L153.9 5.43002M151.81 8.04001L152.59 7.04001M150.5 9.71002L151.27 8.71002M148.56 12.23L149.34 11.23M145.66 15.87L146.43 14.87M144.33 17.55L145.11 16.55M143.12 19.15L143.9 18.15M138.92 24.43L139.7 23.43M137.21 26.61L137.81 25.85M136.12 27.95L136.7 27.21M143.44 193.95L81.56 97.45M142.98 192.06L142.43 192.38L141.88 192.71M116.3 153.32L115.75 153.64L115.2 153.97M121.62 161.61L120.52 162.25M122.04 162.23L121.49 162.55L120.94 162.88M123.69 164.83L123.14 165.16L122.59 165.48M124.39 165.93L123.84 166.25L123.29 166.58M127.34 170.54L126.24 171.18M128.98 173.09L128.43 173.41L127.88 173.74M129.46 173.84L128.91 174.17L128.36 174.49M132.98 179.33L132.43 179.65L131.88 179.98M135.3 182.95L134.76 183.28L134.2 183.6M135.82 183.75L135.27 184.08L134.71 184.4M136.31 184.52L135.76 184.84L135.21 185.17M136.79 185.23L136.24 185.56L135.69 185.88M138.54 189.23L139.22 190.29M137.58 187.69L137.92 188.22L138.26 188.74M136.62 186.23L136.96 186.76L137.3 187.28M133.76 181.73L134.1 182.25L134.44 182.78M132.78 180.23L133.12 180.76L133.45 181.29M130.35 176.4L130.69 176.93L131.02 177.45M129.22 174.65L129.56 175.18L129.9 175.7M131.66 178.45L132 178.98M127.24 171.56L127.58 172.08L127.92 172.61M125.66 169.09L126.34 170.15M124.32 167L125 168.06M121.76 163.01L122.44 164.07M120 160.23L120.33 160.75L120.67 161.28M119 158.7L119.68 159.76M118.01 157.15L118.69 158.21M117.02 155.62L117.36 156.14L117.7 156.67M116.05 154.1L116.73 155.16M77.62 70.86L77.71 71.47L77.8 72.09M77.05 67.03L77.14 67.65L77.23 68.26M76.5 63.32L76.59 63.94L76.68 64.55M76.2 61.28L76.38 62.5M75.77 58.43L75.86 59.05L75.96 59.66M75.22 54.68L75.31 55.3L75.4 55.91M74.8 51.9L74.89 52.51L74.99 53.13M74.5 49.84L74.59 50.45L74.68 51.07M74.12 47.23L74.21 47.84L74.31 48.46M73.83 45.34L73.92 45.95L74.01 46.57M73.55 43.49L73.65 44.1L73.74 44.71M73.26 41.53L73.36 42.14L73.45 42.76M72.85 38.78L72.95 39.39L73.04 40.01M72.32 35.15L72.41 35.77L72.5 36.38M71.97 32.84L72.07 33.45L72.16 34.07M71.67 30.76L71.76 31.38L71.85 31.99M70.91 30.09L71.55 30.01L72.19 29.92M71.99 37.36L72.63 37.27L73.27 37.19M72.12 38.23L73.4 38.05M72.51 40.88L73.16 40.8L73.8 40.71M73.74 49.14L75.02 48.96M74.46 54.01L75.1 53.93L75.74 53.84M74.88 56.84L76.16 56.66M75.02 57.76L75.66 57.67L76.3 57.59M75.44 60.59L76.08 60.5L76.72 60.42M76.17 65.49L77.45 65.31M76.3 66.37L76.94 66.28L77.58 66.2M76.71 69.17L77.35 69.08L77.99 69M76.85 70.07L77.49 69.99L78.13 69.9M77.3 73.13L77.94 73.04L78.58 72.96M78 77.82L78.64 77.74L79.28 77.65M86.12 98.77L81.6 97.44M87.84 99.29L141.84 115.18M145.12 116.16L145.73 116.34L146.35 116.52M146.93 116.68L148.17 117.04M148.79 117.23L149.41 117.41L150.02 117.59M152.24 118.23L152.86 118.42L153.48 118.6M154.01 118.76L155.25 119.12M155.77 119.28L156.39 119.46L157 119.64M161.79 121.05L162.41 121.23L163.02 121.41M163.54 121.57L164.15 121.75L164.77 121.93M166.32 122.39L166.94 122.57L167.55 122.75M168.06 122.9L168.68 123.08L169.29 123.26M169.77 123.4L170.38 123.58L171 123.76M173.19 124.41L174.43 124.77M177.42 125.65L178.66 126.01M180.17 126.46L180.78 126.64L181.4 126.82M182.92 127.23L183.54 127.41L184.15 127.59M144.42 116.59L144.61 116L144.8 115.4M150.71 118.44L150.9 117.85L151.09 117.25M151.56 118.69L151.75 118.1L151.94 117.5M157.75 120.51L157.94 119.92L158.13 119.32M158.52 120.74L158.71 120.14L158.9 119.55M159.32 120.97L159.51 120.38L159.69 119.78M160.12 121.23L160.31 120.64L160.49 120.04M160.85 121.42L161.04 120.83L161.22 120.23M165.49 122.79L165.68 122.19L165.87 121.6M171.51 124.56L171.7 123.97L171.89 123.37M172.34 124.8L172.72 123.62M174.77 125.52L174.96 124.93L175.15 124.33M175.67 125.78L176.05 124.6M176.58 126.05L176.77 125.46L176.96 124.86M179.28 126.85L179.47 126.25L179.66 125.66M182.04 127.66L182.23 127.07L182.42 126.47M40.75 101.23L81.56 97.49M37.3 101.49L37.95 101.43L38.59 101.37M33.8 101.81L34.45 101.75L35.09 101.69M31.91 101.98L32.55 101.93L33.19 101.87M27.41 102.4L28.05 102.33L28.69 102.28M25.44 102.58L26.09 102.52L26.73 102.45M23.38 102.76L24.03 102.7L24.67 102.64M21.61 102.93L22.26 102.87L22.9 102.81M19.57 103.11L20.22 103.05L20.86 102.99M16.91 103.35L17.56 103.3L18.2 103.24M14.19 103.6L14.83 103.55L15.47 103.48M11.12 103.89L11.77 103.83L12.41 103.77M9.26999 104.05L9.90999 103.99L10.55 103.94M7.45 104.23L8.09999 104.17L8.73999 104.11M5.62999 104.39L6.90999 104.27M3.37999 104.59L4.03 104.53L4.67 104.47M1 104.81L1.64999 104.75L2.28999 104.69M2.90999 105.23L2.78999 103.99M13.37 104.3L13.3 103.68L13.24 103.07M16.32 104.03L16.26 103.41L16.2 102.8M19.19 103.77L19.13 103.15L19.07 102.54M29.63 102.82L29.51 101.58M30.39 102.75L30.33 102.13L30.26 101.51M31.21 102.67L31.15 102.05L31.09 101.44M36.12 102.23L36.05 101.61L35.99 101M36.91 102.15L36.85 101.53L36.78 100.92M39.55 101.91L39.49 101.29L39.43 100.68M44.82 101.43L44.7 100.19M77.89 135.35L77.77 136.59M77.68 137.44L77.63 138.05L77.57 138.67M77.49 139.44L77.37 140.68M77.12 142.91L77.06 143.53L77.01 144.15M76.79 146.71L76.73 147.33L76.67 147.94M76.42 150.44L76.3 151.68M76.22 152.51L76.1 153.75M75.95 155.23L75.9 155.85L75.84 156.46M75.68 158.12L75.62 158.73L75.56 159.35M75.39 161.07L75.33 161.69L75.27 162.3M75.2 163.04L75.08 164.28M74.36 164.97L75.01 165.03L75.65 165.08M74.28 165.86L74.92 165.92L75.57 165.98M74.19 166.77L74.83 166.82L75.48 166.88M74.83 160.23H75.47L76.12 160.29M75.12 157.23L75.77 157.29H76.41M75.4 154.28L76.05 154.34L76.69 154.39M75.86 149.59L76.5 149.64L77.15 149.7M75.94 148.7L76.59 148.76L77.23 148.82M76.22 145.82L76.87 145.88L77.51 145.94M76.31 144.92L76.95 144.98L77.6 145.04M76.56 142.33L77.21 142.39L77.85 142.45M76.65 141.44L77.29 141.5L77.94 141.56M77.33 134.43L78.61 134.55M77.41 133.56L78.06 133.62L78.7 133.67M77.5 132.66L78.14 132.72L78.79 132.78M77.59 131.75L78.87 131.87M77.96 127.91L78.6 127.97L79.25 128.03M101.26 92.58L100.64 92.74L100.01 92.89M103.23 92.1L102.6 92.25L101.98 92.41M105.12 91.62L104.49 91.78L103.87 91.93M107.03 91.16L106.41 91.32L105.78 91.47M108.95 90.69L108.33 90.84L107.7 91M112.64 89.78L112.02 89.93L111.39 90.09M115.37 89.1L114.75 89.26L114.12 89.41M117.28 88.64L116.65 88.79L116.03 88.94M120.12 87.93L119.49 88.08L118.87 88.24M123.01 87.23L122.39 87.39L121.76 87.54M125.73 86.55L125.1 86.7L124.48 86.86M127.75 86.05L127.12 86.23L126.49 86.39M129.98 85.5L129.36 85.65L128.73 85.81M134.6 84.36L133.97 84.52L133.35 84.67M137.58 83.63L136.96 83.78L136.33 83.93M141.23 82.73L140.61 82.88L139.98 83.03M143.2 82.23L142.57 82.39L141.95 82.54M139.12 82.61L139.44 83.81M138.21 82.83L138.37 83.44L138.53 84.04M135.24 83.56L135.4 84.17L135.56 84.77M132.42 84.23L132.74 85.43M131.51 84.48L131.67 85.08L131.84 85.69M130.62 84.7L130.78 85.31L130.94 85.91M123.64 86.43L123.96 87.63M120.84 87.12L121.16 88.32M118 87.82L118.32 89.02M113.19 89L113.34 89.6L113.51 90.2M110.6 89.64L110.92 90.84M109.71 89.86L110.03 91.06M99.28 92.43L99.44 93.03L99.6 93.64M89.75 94.79L90.07 95.99M99.61 52.3L99.15 53.46M98.2 55.84L97.97 56.42L97.74 56.99M97.51 57.57L97.27 58.15L97.04 58.73M96.66 59.69L96.2 60.85M95.96 61.43L95.5 62.59M95.27 63.17L94.81 64.33M93.82 66.78L93.36 67.94M93.12 68.59L92.66 69.75M91.41 72.82L90.95 73.98M90.55 74.97L90.09 76.13M88.48 80.16L88.24 80.74L88.01 81.32M87.79 81.87L87.56 82.44L87.33 83.02M85.7 87.08L85.24 88.24M84.4 90.35L84.17 90.93L83.94 91.5M83.44 91.02L84.04 91.25L84.65 91.47M84.31 88.85L84.91 89.07L85.52 89.3M85.39 86.16L86.59 86.6M85.73 85.3L86.33 85.52L86.94 85.74M86.06 84.46L86.67 84.68L87.27 84.91M86.39 83.63L87 83.86L87.6 84.08M88.18 79.17L88.78 79.39L89.39 79.61M88.5 78.36L89.11 78.58L89.71 78.8M88.84 77.51L89.45 77.73L90.05 77.96M89.17 76.69L89.77 76.91L90.38 77.13M91.12 71.94L91.72 72.17L92.32 72.39M91.42 71.07L92.02 71.3L92.62 71.52M91.75 70.23L92.36 70.45L92.96 70.67M93.56 65.72L94.16 65.94L94.76 66.17M93.88 64.91L94.48 65.13L95.09 65.35M97.85 54.99L99.05 55.43M98.12 54.23L98.73 54.45L99.33 54.68M99.22 51.57L100.42 52.01M88.03 90.44L87.6 90.9L87.17 91.37M89.35 89.01L88.92 89.48L88.49 89.94M91.84 86.31L91.41 86.77L90.98 87.24M93.12 84.88L92.69 85.35L92.26 85.81M95.19 82.68L94.76 83.15L94.33 83.61M97.82 79.83L97.39 80.3L96.96 80.76M99.76 77.73L99.33 78.19L98.9 78.66M103.12 74.09L102.69 74.56L102.26 75.02M105.04 72L104.61 72.47L104.19 72.93M106.45 70.48L106.02 70.95L105.59 71.41M108.37 68.4L107.94 68.86L107.51 69.33M111.73 64.75L111.31 65.22L110.88 65.68M113.12 63.23L112.69 63.7L112.26 64.16M114.52 61.74L114.12 62.23L113.7 62.69M109.74 65.98L110.7 66.8M109.12 66.67L109.61 67.08L110.09 67.49M108.5 67.32L108.99 67.73L109.47 68.14M106.48 69.51L106.96 69.92L107.45 70.33M103.12 73.12L104.08 73.94M101.12 75.33L101.6 75.74L102.08 76.16M100.46 76.03L100.95 76.44L101.43 76.85M99.87 76.67L100.36 77.08L100.84 77.49M97.86 78.85L98.35 79.26L98.83 79.67M95.93 80.94L96.41 81.36L96.89 81.77M95.3 81.63L96.26 82.45M93.3 83.79L94.26 84.61M89.96 87.41L90.45 87.82L90.93 88.23M86.22 91.47L87.18 92.29M89.34 88.08L89.82 88.49L90.31 88.9M84.44 100.59L83.58 99.65M87.25 103.66L86.82 103.2L86.39 102.73M89.78 106.43L89.35 105.96L88.92 105.5M91.12 107.86L90.27 106.93M92.93 109.88L92.51 109.41L92.08 108.95M94.17 111.23L93.74 110.76L93.32 110.3M96.73 114.04L96.31 113.58L95.88 113.11M97.95 115.37L97.52 114.91L97.09 114.44M99.18 116.72L98.75 116.25L98.32 115.79M101.12 118.8L100.27 117.87M103.06 120.97L102.2 120.03M106.04 124.23L105.61 123.76L105.18 123.3M108.44 126.85L108.01 126.38L107.58 125.92M111.24 128.97L110.75 129.38L110.27 129.79M110.62 128.3L110.13 128.7L109.65 129.11M110.02 127.64L109.53 128.05L109.05 128.46M109.4 126.97L108.44 127.79M107.6 124.99L107.11 125.4L106.63 125.81M106.99 124.33L106.51 124.74L106.02 125.15M105.2 122.37L104.72 122.78L104.23 123.19M104.58 121.69L104.1 122.1L103.61 122.51M103.99 121.04L103.5 121.45L103.02 121.86M102.18 119.06L101.69 119.47L101.21 119.88M100.12 116.81L99.64 117.22L99.15 117.63M95.8 112.09L94.84 112.91M95.21 111.43L94.72 111.84L94.24 112.25M91.99 107.91L91.5 108.32L91.02 108.73M88.91 104.55L88.43 104.96L87.94 105.37M88.29 103.86L87.8 104.27L87.32 104.68M86.34 101.73L85.86 102.14L85.37 102.55M84.48 99.69L83.99 100.1L83.51 100.51M80.59 98.58L81.59 97.44M78.26 101.29L78.67 100.81L79.08 100.34M76.37 103.5L77.19 102.54M74.44 105.74L74.85 105.26L75.26 104.79M71.98 108.61L72.8 107.65M69.51 111.49L70.33 110.53M68.17 113.05L68.99 112.09M65.73 115.89L66.15 115.41L66.56 114.93M63.19 118.85L64.01 117.89M61.88 120.38L62.7 119.42M59.96 122.61L60.37 122.13L60.78 121.66M58.04 124.85L58.45 124.38L58.86 123.9M56.74 126.37L57.56 125.41M55.57 127.73L56.39 126.77M54.4 129.09L55.22 128.13M54.44 130.02L53.94 129.62L53.44 129.23M53.8 130.76L53.31 130.36L52.81 129.97M59.93 123.63L59.43 123.23L58.93 122.84M61.87 121.36L61.38 120.96L60.88 120.57M65.12 117.56L64.62 117.17L64.13 116.77M65.68 116.92L65.18 116.53L64.69 116.13M67.55 114.75L67.05 114.35L66.55 113.96M68.12 114.03L67.63 113.64L67.13 113.24M71.42 110.23L70.92 109.83L70.42 109.44M72 109.56L71.5 109.17L71 108.77M73.8 107.46L73.3 107.07L72.8 106.67M74.41 106.76L73.91 106.36L73.41 105.97M76.25 104.61L75.75 104.21L75.26 103.82M78.23 102.3L77.73 101.91L77.23 101.51M80.12 100.14L79.63 99.75L79.13 99.35M73.57 99.96L74.18 99.77L74.79 99.57M69.82 101.14L70.43 100.94L71.05 100.75M66.21 102.23L67.43 101.85M64.39 102.84L65.01 102.65L65.62 102.46M59.85 104.23L60.46 104.04L61.08 103.85M56.48 105.33L57.09 105.14L57.71 104.94M53.7 106.23L54.31 106.04L54.93 105.85M50.99 107.06L51.6 106.86L52.21 106.67M48.23 107.92L48.85 107.73L49.46 107.54M43.02 109.56L44.24 109.18M41.32 110.09L41.94 109.9L42.55 109.71M39.61 110.63L40.23 110.44L40.84 110.25M36.72 111.54L37.94 111.16M35.31 112.64L34.91 111.46M36.18 112.36L35.78 111.18M38.93 111.5L38.72 110.91L38.52 110.32M45.12 109.55L44.72 108.37M45.96 109.29L45.56 108.11M46.87 109L46.47 107.82M47.72 108.73L47.52 108.15L47.32 107.56M50.47 107.87L50.07 106.69M53.21 107.01L52.81 105.83M55.98 106.14L55.58 104.96M58.69 105.29L58.49 104.7L58.28 104.11M59.57 105.01L59.17 103.83M62.17 104.23L61.77 103.05M63.02 103.93L62.82 103.33L62.62 102.75M63.87 103.66L63.47 102.48M68.47 102.23L68.26 101.63L68.06 101.04M69.32 101.95L68.92 100.77M72.12 101.07L71.72 99.89M78.74 98.99L78.54 98.4L78.33 97.81M54 97.9H53.35L52.71 97.95M52.17 98.02H50.88M46.86 98.38L46.22 98.43H45.57M44.12 98.56L43.48 98.61H42.83M42.05 98.7H40.76M40.17 98.83H39.52L38.88 98.88M36.18 99.1H34.89M33.67 99.23H33.02L32.38 99.28M30.97 99.45H29.68M29.04 99.58H27.75M26.89 99.72L26.25 99.77H25.6M23.99 99.92H22.7M22 100.05L21.36 100.1H20.71M17.96 100.33H16.67M15.83 100.47H14.54M14 100.59L13.36 100.64H12.71M11.12 100.79H9.83M9.17999 100.92H7.89M11.56 100.13L11.61 100.75V101.37M20.05 99.56V100.8M19.2 99.62V100.24L19.25 100.86M18.38 99.68V100.91M24.71 99.23V99.85L24.76 100.47M31.41 98.8L31.46 99.42V100.03M34.24 98.61V99.23L34.29 99.84M36.97 98.43V99.04L37.02 99.66M37.83 98.37V98.98L37.88 99.6M44.62 97.91V98.53L44.67 99.15M47.5 97.72V98.33L47.55 98.95M48.35 97.66V98.9M49.12 97.6L49.17 98.22V98.84M49.95 97.55V98.79M54.71 97.23V97.85L54.76 98.47M58.68 98.36L58.73 98.98V99.6M81.57 97.44L76.48 97.79M55.67 99.23L75.05 97.92" stroke="white" stroke-width="0.8" stroke-linecap="round"/>
</svg>
