<svg width="125" height="127" viewBox="0 0 125 127" fill="none" xmlns="http://www.w3.org/2000/svg">
<path d="M116.83 65.69V65.19H116.33V65.69H116.83ZM119.66 65.69H120.16V65.19H119.66V65.69ZM119.66 72.62V73.12H120.16V72.62H119.66ZM116.83 72.62H116.33V73.12H116.83V72.62ZM115.95 71.54L115.814 72.0211L116.451 72.2012L116.45 71.5391L115.95 71.54ZM120.54 71.54H120.04V72.2029L120.677 72.0208L120.54 71.54ZM120.54 65.69H121.04V65.19H120.54V65.69ZM115.94 65.69V65.19H115.439L115.44 65.6909L115.94 65.69ZM121.753 69.5593C121.609 69.7949 121.684 70.1026 121.919 70.2466C122.155 70.3906 122.463 70.3163 122.607 70.0807L121.753 69.5593ZM123.83 67.12L124.257 67.3807C124.305 67.3022 124.33 67.212 124.33 67.12H123.83ZM123.83 66.64H124.33C124.33 66.4661 124.24 66.3046 124.091 66.2137C123.943 66.1228 123.758 66.1155 123.603 66.1944L123.83 66.64ZM122.18 67.48L121.753 67.2193C121.637 67.4102 121.661 67.6553 121.813 67.8196C121.965 67.9838 122.207 68.0271 122.407 67.9256L122.18 67.48ZM123.83 64.78L124.257 65.0407C124.305 64.9622 124.33 64.872 124.33 64.78H123.83ZM123.83 64.3H124.33C124.33 64.1262 124.24 63.965 124.092 63.874C123.944 63.783 123.759 63.7754 123.604 63.8539L123.83 64.3ZM122.25 65.1L121.831 64.8269C121.708 65.0164 121.727 65.2653 121.878 65.4337C122.029 65.6022 122.274 65.6483 122.476 65.5461L122.25 65.1ZM123.73 62.83L124.149 63.1031C124.202 63.0219 124.23 62.927 124.23 62.83H123.73ZM123.73 62.35H124.23C124.23 62.1762 124.14 62.0149 123.992 61.9239C123.844 61.833 123.659 61.8254 123.504 61.904L123.73 62.35ZM122.064 62.634C121.818 62.7589 121.719 63.0598 121.844 63.3061C121.969 63.5524 122.27 63.6508 122.516 63.526L122.064 62.634ZM113.873 70.0807C114.017 70.3163 114.325 70.3906 114.561 70.2466C114.796 70.1026 114.871 69.7949 114.727 69.5593L113.873 70.0807ZM112.65 67.12H112.15C112.15 67.212 112.175 67.3022 112.223 67.3807L112.65 67.12ZM112.65 66.64L112.877 66.1944C112.722 66.1155 112.537 66.1228 112.389 66.2137C112.24 66.3046 112.15 66.4661 112.15 66.64H112.65ZM114.3 67.48L114.073 67.9256C114.273 68.0271 114.515 67.9838 114.667 67.8196C114.819 67.6553 114.843 67.4102 114.727 67.2193L114.3 67.48ZM112.65 64.78H112.15C112.15 64.872 112.175 64.9622 112.223 65.0407L112.65 64.78ZM112.65 64.3L112.877 63.8545C112.722 63.7755 112.537 63.7828 112.389 63.8737C112.24 63.9646 112.15 64.126 112.15 64.3H112.65ZM114.22 65.1L113.993 65.5455C114.195 65.6482 114.44 65.6028 114.591 65.4348C114.743 65.2668 114.763 65.0181 114.64 64.8282L114.22 65.1ZM112.75 62.83H112.25C112.25 62.9264 112.278 63.0208 112.33 63.1018L112.75 62.83ZM112.75 62.35L112.976 61.904C112.821 61.8254 112.636 61.833 112.488 61.9239C112.34 62.0149 112.25 62.1762 112.25 62.35H112.75ZM113.964 63.526C114.21 63.6508 114.511 63.5524 114.636 63.3061C114.761 63.0598 114.662 62.7589 114.416 62.634L113.964 63.526ZM117.46 55.03V54.53H116.96V55.03H117.46ZM119.02 55.03H119.52V54.53H119.02V55.03ZM119.02 59.53V60.03H119.52V59.53H119.02ZM117.46 59.53H116.96V60.03H117.46V59.53ZM117.46 42.01V41.51H116.96V42.01H117.46ZM119.02 42.01H119.52V41.51H119.02V42.01ZM119.02 46.52V47.02H119.52V46.52H119.02ZM117.46 46.52H116.96V47.02H117.46V46.52ZM122.68 38.68C122.68 38.4039 122.456 38.18 122.18 38.18C121.904 38.18 121.68 38.4039 121.68 38.68H122.68ZM121.68 69.71C121.68 69.9861 121.904 70.21 122.18 70.21C122.456 70.21 122.68 69.9861 122.68 69.71H121.68ZM113.8 69.71C113.8 69.9861 114.024 70.21 114.3 70.21C114.576 70.21 114.8 69.9861 114.8 69.71H113.8ZM114.8 38.68C114.8 38.4039 114.576 38.18 114.3 38.18C114.024 38.18 113.8 38.4039 113.8 38.68H114.8ZM124.275 44.525L124.775 44.525L124.275 44.525ZM123.18 44.52L122.68 44.52L122.68 44.5244L123.18 44.52ZM113.3 44.53L113.8 44.5345L113.8 44.5273L113.3 44.53ZM122.18 38.69H122.68V38.19H122.18V38.69ZM120.78 40.09L120.78 40.59L120.78 40.09ZM115.66 40.09V40.59V40.09ZM114.26 38.69L114.76 38.69L114.76 38.69L114.26 38.69ZM115.66 37.28V36.78L115.656 36.78L115.66 37.28ZM120.74 37.28L120.744 36.78H120.74V37.28ZM122.14 38.69L121.64 38.69L121.64 39.19H122.14V38.69ZM121.03 38.69L120.53 38.6794V38.69L121.03 38.69ZM115.92 39.16L115.92 38.66L115.92 38.66L115.92 39.16ZM115.44 38.69L114.94 38.69L114.94 38.7004L115.44 38.69ZM115.92 38.21L115.92 37.71L115.92 38.21ZM120.56 38.21L120.56 38.71L120.56 38.71L120.56 38.21ZM61.78 4.00999L61.7795 4.50999H61.78V4.00999ZM116.83 66.19H119.66V65.19H116.83V66.19ZM119.16 65.69V72.62H120.16V65.69H119.16ZM119.66 72.12H116.83V73.12H119.66V72.12ZM117.33 72.62V65.69H116.33V72.62H117.33ZM116.086 71.0588C115.66 70.9385 115.345 70.7898 115.148 70.6436C114.942 70.4906 114.94 70.4009 114.94 70.4H113.94C113.94 70.8591 114.233 71.2094 114.552 71.4464C114.88 71.6901 115.32 71.8815 115.814 72.0211L116.086 71.0588ZM114.94 70.4C114.94 67.5014 115.145 65.5374 115.674 64.3064C115.933 63.7059 116.257 63.3075 116.651 63.0536C117.047 62.7988 117.558 62.66 118.24 62.66V61.66C117.422 61.66 116.708 61.8274 116.11 62.213C115.51 62.5994 115.072 63.1753 114.756 63.9111C114.135 65.3526 113.94 67.5086 113.94 70.4H114.94ZM118.24 62.66C118.922 62.66 119.433 62.7988 119.829 63.0536C120.223 63.3075 120.547 63.7059 120.806 64.3064C121.335 65.5374 121.54 67.5014 121.54 70.4H122.54C122.54 67.5086 122.345 65.3526 121.724 63.9111C121.408 63.1753 120.97 62.5994 120.37 62.213C119.772 61.8274 119.058 61.66 118.24 61.66V62.66ZM121.54 70.4C121.54 70.4013 121.537 70.4911 121.332 70.6443C121.136 70.7905 120.824 70.939 120.403 71.0592L120.677 72.0208C121.167 71.881 121.604 71.6895 121.93 71.4457C122.248 71.2089 122.54 70.8587 122.54 70.4H121.54ZM121.04 71.54V65.69H120.04V71.54H121.04ZM120.54 65.19H115.94V66.19H120.54V65.19ZM115.44 65.6909L115.45 71.5408L116.45 71.5391L116.44 65.6891L115.44 65.6909ZM122.607 70.0807L124.257 67.3807L123.403 66.8593L121.753 69.5593L122.607 70.0807ZM124.33 67.12V66.64H123.33V67.12H124.33ZM123.603 66.1944L121.953 67.0344L122.407 67.9256L124.057 67.0856L123.603 66.1944ZM122.607 67.7407L124.257 65.0407L123.403 64.5193L121.753 67.2193L122.607 67.7407ZM124.33 64.78V64.3H123.33V64.78H124.33ZM123.604 63.8539L122.024 64.6539L122.476 65.5461L124.056 64.7461L123.604 63.8539ZM122.669 65.3731L124.149 63.1031L123.311 62.5569L121.831 64.8269L122.669 65.3731ZM124.23 62.83V62.35H123.23V62.83H124.23ZM123.504 61.904L122.064 62.634L122.516 63.526L123.956 62.796L123.504 61.904ZM114.727 69.5593L113.077 66.8593L112.223 67.3807L113.873 70.0807L114.727 69.5593ZM113.15 67.12V66.64H112.15V67.12H113.15ZM112.423 67.0856L114.073 67.9256L114.527 67.0344L112.877 66.1944L112.423 67.0856ZM114.727 67.2193L113.077 64.5193L112.223 65.0407L113.873 67.7407L114.727 67.2193ZM113.15 64.78V64.3H112.15V64.78H113.15ZM112.423 64.7455L113.993 65.5455L114.447 64.6545L112.877 63.8545L112.423 64.7455ZM114.64 64.8282L113.17 62.5582L112.33 63.1018L113.8 65.3718L114.64 64.8282ZM113.25 62.83V62.35H112.25V62.83H113.25ZM112.524 62.796L113.964 63.526L114.416 62.634L112.976 61.904L112.524 62.796ZM117.46 55.53H119.02V54.53H117.46V55.53ZM118.52 55.03V59.53H119.52V55.03H118.52ZM119.02 59.03H117.46V60.03H119.02V59.03ZM117.96 59.53V55.03H116.96V59.53H117.96ZM117.46 42.51H119.02V41.51H117.46V42.51ZM118.52 42.01V46.52H119.52V42.01H118.52ZM119.02 46.02H117.46V47.02H119.02V46.02ZM117.96 46.52V42.01H116.96V46.52H117.96ZM120.35 40.98V42.61H121.35V40.98H120.35ZM120.35 43.9V52.68H121.35V43.9H120.35ZM120.35 53.9V60.33H121.35V53.9H120.35ZM120.35 61.12V62.25H121.35V61.12H120.35ZM115.13 41.51V42.87H116.13V41.51H115.13ZM115.13 43.9V52.68H116.13V43.9H115.13ZM115.13 53.64V61.39H116.13V53.64H115.13ZM115.13 61.92V62.78H116.13V61.92H115.13ZM121.68 38.68V69.71H122.68V38.68H121.68ZM114.8 69.71V38.68H113.8V69.71H114.8ZM122.505 49.4596C123.217 48.8494 123.788 48.0924 124.18 47.2407L123.272 46.8229C122.94 47.5436 122.457 48.1841 121.855 48.7004L122.505 49.4596ZM124.18 47.2407C124.572 46.3889 124.775 45.4625 124.775 44.525L123.775 44.525C123.775 45.3183 123.603 46.1021 123.272 46.8229L124.18 47.2407ZM124.775 44.525C124.775 43.5875 124.572 42.6611 124.18 41.8093L123.272 42.2271C123.603 42.9478 123.775 43.7317 123.775 44.525L124.775 44.525ZM124.18 41.8093C123.788 40.9576 123.217 40.2006 122.505 39.5904L121.855 40.3496C122.457 40.8659 122.94 41.5064 123.272 42.2271L124.18 41.8093ZM113.975 39.5904C113.263 40.2006 112.692 40.9576 112.3 41.8093L113.208 42.2271C113.54 41.5064 114.023 40.8659 114.625 40.3496L113.975 39.5904ZM112.3 41.8093C111.908 42.6611 111.705 43.5875 111.705 44.525H112.705C112.705 43.7317 112.877 42.9478 113.208 42.2271L112.3 41.8093ZM111.705 44.525C111.705 45.4625 111.908 46.3889 112.3 47.2407L113.208 46.8229C112.877 46.1021 112.705 45.3183 112.705 44.525H111.705ZM112.3 47.2407C112.692 48.0924 113.263 48.8494 113.975 49.4596L114.625 48.7004C114.023 48.1841 113.54 47.5436 113.208 46.8229L112.3 47.2407ZM122.577 47.8235C123.303 46.8742 123.691 45.7102 123.68 44.5155L122.68 44.5244C122.689 45.4966 122.373 46.4439 121.783 47.2164L122.577 47.8235ZM123.68 44.52C123.68 43.33 123.294 42.172 122.58 41.22L121.78 41.82C122.364 42.5989 122.68 43.5463 122.68 44.52L123.68 44.52ZM113.902 41.2278C113.181 42.1782 112.794 43.3399 112.8 44.5327L113.8 44.5273C113.795 43.5545 114.111 42.6072 114.698 41.8322L113.902 41.2278ZM112.8 44.5255C112.789 45.7202 113.177 46.8842 113.903 47.8336L114.697 47.2264C114.107 46.4539 113.791 45.5066 113.8 44.5345L112.8 44.5255ZM121.68 38.69C121.68 38.9287 121.585 39.1576 121.416 39.3264L122.124 40.0335C122.48 39.6772 122.68 39.1939 122.68 38.69H121.68ZM121.416 39.3264C121.248 39.4952 121.019 39.59 120.78 39.59L120.78 40.59C121.284 40.59 121.767 40.3898 122.124 40.0335L121.416 39.3264ZM120.78 39.59H115.66V40.59H120.78V39.59ZM115.66 39.59C115.421 39.59 115.192 39.4952 115.024 39.3264L114.316 40.0335C114.673 40.3898 115.156 40.59 115.66 40.59L115.66 39.59ZM115.024 39.3264C114.855 39.1576 114.76 38.9287 114.76 38.69L113.76 38.69C113.76 39.1939 113.96 39.6772 114.316 40.0335L115.024 39.3264ZM114.76 38.69C114.76 38.4497 114.855 38.2192 115.024 38.0488L114.315 37.3442C113.959 37.702 113.76 38.1858 113.76 38.69L114.76 38.69ZM115.024 38.0488C115.193 37.8783 115.423 37.7817 115.664 37.78L115.656 36.78C115.152 36.7836 114.67 36.9864 114.315 37.3442L115.024 38.0488ZM115.66 37.78H120.74V36.78H115.66V37.78ZM120.736 37.78C120.977 37.7817 121.206 37.8783 121.376 38.0488L122.085 37.3442C121.73 36.9864 121.248 36.7836 120.744 36.78L120.736 37.78ZM121.376 38.0488C121.545 38.2193 121.64 38.4498 121.64 38.69L122.64 38.69C122.64 38.1858 122.441 37.702 122.085 37.3442L121.376 38.0488ZM122.14 39.19H122.18V38.19H122.14V39.19ZM120.53 38.69C120.53 38.682 120.533 38.6744 120.539 38.6688L121.246 39.3759C121.428 39.194 121.53 38.9473 121.53 38.69L120.53 38.69ZM120.539 38.6688C120.544 38.6631 120.552 38.66 120.56 38.66V39.66C120.817 39.66 121.064 39.5578 121.246 39.3759L120.539 38.6688ZM120.56 38.66H115.92V39.66H120.56V38.66ZM115.92 38.66C115.925 38.66 115.93 38.662 115.934 38.6657L115.234 39.3802C115.418 39.5596 115.664 39.66 115.92 39.66L115.92 38.66ZM115.934 38.6657C115.938 38.6694 115.94 38.6744 115.94 38.6796L114.94 38.7004C114.945 38.9568 115.051 39.2008 115.234 39.3802L115.934 38.6657ZM115.94 38.69C115.94 38.6953 115.938 38.7004 115.934 38.7041L115.227 37.997C115.043 38.1808 114.94 38.4301 114.94 38.69L115.94 38.69ZM115.934 38.7041C115.93 38.7079 115.925 38.71 115.92 38.71L115.92 37.71C115.66 37.71 115.411 37.8133 115.227 37.997L115.934 38.7041ZM115.92 38.71H120.56V37.71H115.92V38.71ZM120.56 38.71C120.556 38.71 120.552 38.7092 120.548 38.7077L120.936 37.7858C120.817 37.7357 120.689 37.71 120.56 37.71L120.56 38.71ZM120.548 38.7077C120.545 38.7061 120.541 38.7038 120.539 38.701L121.253 38.0014C121.163 37.9091 121.055 37.8358 120.936 37.7858L120.548 38.7077ZM120.539 38.701C120.536 38.6981 120.534 38.6947 120.532 38.691L121.462 38.3231C121.415 38.2031 121.344 38.0937 121.253 38.0014L120.539 38.701ZM120.532 38.691C120.531 38.6873 120.53 38.6834 120.53 38.6794L121.53 38.7006C121.533 38.5715 121.51 38.4432 121.462 38.3231L120.532 38.691ZM54.4411 4.95625C56.8757 4.65672 59.3265 4.50768 61.7795 4.50999L61.7805 3.50999C59.2863 3.50765 56.7944 3.65918 54.319 3.96373L54.4411 4.95625ZM61.78 4.50999C61.7812 4.50999 61.7825 4.50999 61.7837 4.50999C61.785 4.50999 61.7862 4.50999 61.7875 4.50999C61.7887 4.50999 61.79 4.50999 61.7912 4.50999C61.7925 4.50999 61.7937 4.50999 61.795 4.50999C61.7962 4.50999 61.7975 4.50999 61.7987 4.50999C61.8 4.50999 61.8012 4.50999 61.8025 4.50999C61.8037 4.50999 61.805 4.50999 61.8062 4.50999C61.8075 4.50999 61.8087 4.50999 61.81 4.50999C61.8112 4.50999 61.8125 4.50999 61.8137 4.50999C61.815 4.50999 61.8162 4.50999 61.8175 4.50999C61.8187 4.50999 61.82 4.50999 61.8212 4.50999C61.8225 4.50999 61.8237 4.50999 61.825 4.50999C61.8262 4.50999 61.8275 4.50999 61.8287 4.50999C61.83 4.50999 61.8312 4.50999 61.8325 4.50999C61.8337 4.50999 61.835 4.50999 61.8362 4.50999C61.8375 4.50999 61.8387 4.50999 61.84 4.50999C61.8412 4.50999 61.8425 4.50999 61.8437 4.50999C61.845 4.50999 61.8462 4.50999 61.8475 4.50999C61.8487 4.50999 61.85 4.50999 61.8512 4.50999C61.8525 4.50999 61.8537 4.50999 61.855 4.50999C61.8562 4.50999 61.8575 4.50999 61.8587 4.50999C61.8599 4.50999 61.8612 4.50999 61.8624 4.50999C61.8637 4.50999 61.8649 4.50999 61.8662 4.50999C61.8674 4.50999 61.8687 4.50999 61.8699 4.50999C61.8712 4.50999 61.8724 4.50999 61.8737 4.50999C61.8749 4.50999 61.8762 4.50999 61.8774 4.50999C61.8787 4.50999 61.8799 4.50999 61.8812 4.50999C61.8824 4.50999 61.8837 4.50999 61.8849 4.50999C61.8862 4.50999 61.8874 4.50999 61.8887 4.50999C61.8899 4.50999 61.8912 4.50999 61.8924 4.50999C61.8936 4.50999 61.8949 4.50999 61.8961 4.50999C61.8974 4.50999 61.8986 4.50999 61.8999 4.50999C61.9011 4.50999 61.9024 4.50999 61.9036 4.50999C61.9049 4.50999 61.9061 4.50999 61.9074 4.50999C61.9086 4.50999 61.9099 4.50999 61.9111 4.50999C61.9124 4.50999 61.9136 4.50999 61.9149 4.50999C61.9161 4.50999 61.9174 4.50999 61.9186 4.50999C61.9198 4.50999 61.9211 4.50999 61.9223 4.50999C61.9236 4.50999 61.9248 4.50999 61.9261 4.50999C61.9273 4.50999 61.9286 4.50999 61.9298 4.50999C61.9311 4.50999 61.9323 4.50999 61.9336 4.50999C61.9348 4.50999 61.9361 4.50999 61.9373 4.50999C61.9386 4.50999 61.9398 4.50999 61.941 4.50999C61.9423 4.50999 61.9435 4.50999 61.9448 4.50999C61.946 4.50999 61.9473 4.50999 61.9485 4.50999C61.9498 4.50999 61.951 4.50999 61.9523 4.50999C61.9535 4.50999 61.9548 4.50999 61.956 4.50999C61.9573 4.50999 61.9585 4.50999 61.9598 4.50999C61.961 4.50999 61.9622 4.50999 61.9635 4.50999C61.9647 4.50999 61.966 4.50999 61.9672 4.50999C61.9685 4.50999 61.9697 4.50999 61.971 4.50999C61.9722 4.50999 61.9735 4.50999 61.9747 4.50999C61.976 4.50999 61.9772 4.50999 61.9784 4.50999C61.9797 4.50999 61.9809 4.50999 61.9822 4.50999C61.9834 4.50999 61.9847 4.50999 61.9859 4.50999C61.9872 4.50999 61.9884 4.50999 61.9897 4.50999C61.9909 4.50999 61.9922 4.50999 61.9934 4.50999C61.9947 4.50999 61.9959 4.50999 61.9971 4.50999C61.9984 4.50999 61.9996 4.50999 62.0009 4.50999C62.0021 4.50999 62.0034 4.50999 62.0046 4.50999C62.0059 4.50999 62.0071 4.50999 62.0084 4.50999C62.0096 4.50999 62.0108 4.50999 62.0121 4.50999C62.0133 4.50999 62.0146 4.50999 62.0158 4.50999C62.0171 4.50999 62.0183 4.50999 62.0196 4.50999C62.0208 4.50999 62.0221 4.50999 62.0233 4.50999C62.0246 4.50999 62.0258 4.50999 62.027 4.50999C62.0283 4.50999 62.0295 4.50999 62.0308 4.50999C62.032 4.50999 62.0333 4.50999 62.0345 4.50999C62.0358 4.50999 62.037 4.50999 62.0383 4.50999C62.0395 4.50999 62.0407 4.50999 62.042 4.50999C62.0432 4.50999 62.0445 4.50999 62.0457 4.50999C62.047 4.50999 62.0482 4.50999 62.0495 4.50999C62.0507 4.50999 62.052 4.50999 62.0532 4.50999C62.0544 4.50999 62.0557 4.50999 62.0569 4.50999C62.0582 4.50999 62.0594 4.50999 62.0607 4.50999C62.0619 4.50999 62.0632 4.50999 62.0644 4.50999C62.0656 4.50999 62.0669 4.50999 62.0681 4.50999C62.0694 4.50999 62.0706 4.50999 62.0719 4.50999C62.0731 4.50999 62.0744 4.50999 62.0756 4.50999C62.0769 4.50999 62.0781 4.50999 62.0793 4.50999C62.0806 4.50999 62.0818 4.50999 62.0831 4.50999C62.0843 4.50999 62.0856 4.50999 62.0868 4.50999C62.0881 4.50999 62.0893 4.50999 62.0905 4.50999C62.0918 4.50999 62.093 4.50999 62.0943 4.50999C62.0955 4.50999 62.0968 4.50999 62.098 4.50999C62.0993 4.50999 62.1005 4.50999 62.1017 4.50999C62.103 4.50999 62.1042 4.50999 62.1055 4.50999C62.1067 4.50999 62.108 4.50999 62.1092 4.50999C62.1105 4.50999 62.1117 4.50999 62.1129 4.50999C62.1142 4.50999 62.1154 4.50999 62.1167 4.50999C62.1179 4.50999 62.1192 4.50999 62.1204 4.50999C62.1217 4.50999 62.1229 4.50999 62.1241 4.50999C62.1254 4.50999 62.1266 4.50999 62.1279 4.50999C62.1291 4.50999 62.1304 4.50999 62.1316 4.50999C62.1329 4.50999 62.1341 4.50999 62.1353 4.50999C62.1366 4.50999 62.1378 4.50999 62.1391 4.50999C62.1403 4.50999 62.1416 4.50999 62.1428 4.50999C62.1441 4.50999 62.1453 4.50999 62.1465 4.50999C62.1478 4.50999 62.149 4.50999 62.1503 4.50999C62.1515 4.50999 62.1528 4.50999 62.154 4.50999C62.1552 4.50999 62.1565 4.50999 62.1577 4.50999C62.159 4.50999 62.1602 4.50999 62.1615 4.50999C62.1627 4.50999 62.164 4.50999 62.1652 4.50999C62.1664 4.50999 62.1677 4.50999 62.1689 4.50999C62.1702 4.50999 62.1714 4.50999 62.1727 4.50999C62.1739 4.50999 62.1751 4.50999 62.1764 4.50999C62.1776 4.50999 62.1789 4.50999 62.1801 4.50999C62.1814 4.50999 62.1826 4.50999 62.1839 4.50999C62.1851 4.50999 62.1863 4.50999 62.1876 4.50999C62.1888 4.50999 62.1901 4.50999 62.1913 4.50999C62.1926 4.50999 62.1938 4.50999 62.195 4.50999C62.1963 4.50999 62.1975 4.50999 62.1988 4.50999C62.2 4.50999 62.2013 4.50999 62.2025 4.50999C62.2037 4.50999 62.205 4.50999 62.2062 4.50999C62.2075 4.50999 62.2087 4.50999 62.21 4.50999C62.2112 4.50999 62.2124 4.50999 62.2137 4.50999C62.2149 4.50999 62.2162 4.50999 62.2174 4.50999C62.2187 4.50999 62.2199 4.50999 62.2212 4.50999C62.2224 4.50999 62.2236 4.50999 62.2249 4.50999C62.2261 4.50999 62.2274 4.50999 62.2286 4.50999C62.2299 4.50999 62.2311 4.50999 62.2323 4.50999C62.2336 4.50999 62.2348 4.50999 62.2361 4.50999C62.2373 4.50999 62.2386 4.50999 62.2398 4.50999C62.241 4.50999 62.2423 4.50999 62.2435 4.50999C62.2448 4.50999 62.246 4.50999 62.2473 4.50999C62.2485 4.50999 62.2497 4.50999 62.251 4.50999C62.2522 4.50999 62.2535 4.50999 62.2547 4.50999C62.256 4.50999 62.2572 4.50999 62.2584 4.50999C62.2597 4.50999 62.2609 4.50999 62.2622 4.50999C62.2634 4.50999 62.2647 4.50999 62.2659 4.50999C62.2671 4.50999 62.2684 4.50999 62.2696 4.50999C62.2709 4.50999 62.2721 4.50999 62.2733 4.50999C62.2746 4.50999 62.2758 4.50999 62.2771 4.50999C62.2783 4.50999 62.2796 4.50999 62.2808 4.50999C62.282 4.50999 62.2833 4.50999 62.2845 4.50999C62.2858 4.50999 62.287 4.50999 62.2883 4.50999C62.2895 4.50999 62.2907 4.50999 62.292 4.50999C62.2932 4.50999 62.2945 4.50999 62.2957 4.50999C62.297 4.50999 62.2982 4.50999 62.2994 4.50999C62.3007 4.50999 62.3019 4.50999 62.3032 4.50999C62.3044 4.50999 62.3056 4.50999 62.3069 4.50999C62.3081 4.50999 62.3094 4.50999 62.3106 4.50999C62.3119 4.50999 62.3131 4.50999 62.3143 4.50999C62.3156 4.50999 62.3168 4.50999 62.3181 4.50999C62.3193 4.50999 62.3206 4.50999 62.3218 4.50999C62.323 4.50999 62.3243 4.50999 62.3255 4.50999C62.3268 4.50999 62.328 4.50999 62.3292 4.50999C62.3305 4.50999 62.3317 4.50999 62.333 4.50999C62.3342 4.50999 62.3355 4.50999 62.3367 4.50999C62.3379 4.50999 62.3392 4.50999 62.3404 4.50999C62.3417 4.50999 62.3429 4.50999 62.3442 4.50999C62.3454 4.50999 62.3466 4.50999 62.3479 4.50999C62.3491 4.50999 62.3504 4.50999 62.3516 4.50999C62.3528 4.50999 62.3541 4.50999 62.3553 4.50999C62.3566 4.50999 62.3578 4.50999 62.3591 4.50999C62.3603 4.50999 62.3615 4.50999 62.3628 4.50999C62.364 4.50999 62.3653 4.50999 62.3665 4.50999C62.3677 4.50999 62.369 4.50999 62.3702 4.50999C62.3715 4.50999 62.3727 4.50999 62.374 4.50999C62.3752 4.50999 62.3764 4.50999 62.3777 4.50999C62.3789 4.50999 62.3802 4.50999 62.3814 4.50999C62.3826 4.50999 62.3839 4.50999 62.3851 4.50999C62.3864 4.50999 62.3876 4.50999 62.3889 4.50999C62.3901 4.50999 62.3913 4.50999 62.3926 4.50999C62.3938 4.50999 62.3951 4.50999 62.3963 4.50999C62.3975 4.50999 62.3988 4.50999 62.4 4.50999C62.4013 4.50999 62.4025 4.50999 62.4038 4.50999C62.405 4.50999 62.4062 4.50999 62.4075 4.50999C62.4087 4.50999 62.41 4.50999 62.4112 4.50999C62.4124 4.50999 62.4137 4.50999 62.4149 4.50999C62.4162 4.50999 62.4174 4.50999 62.4186 4.50999C62.4199 4.50999 62.4211 4.50999 62.4224 4.50999C62.4236 4.50999 62.4249 4.50999 62.4261 4.50999C62.4273 4.50999 62.4286 4.50999 62.4298 4.50999C62.4311 4.50999 62.4323 4.50999 62.4335 4.50999C62.4348 4.50999 62.436 4.50999 62.4373 4.50999C62.4385 4.50999 62.4397 4.50999 62.441 4.50999C62.4422 4.50999 62.4435 4.50999 62.4447 4.50999C62.446 4.50999 62.4472 4.50999 62.4484 4.50999C62.4497 4.50999 62.4509 4.50999 62.4522 4.50999C62.4534 4.50999 62.4546 4.50999 62.4559 4.50999C62.4571 4.50999 62.4584 4.50999 62.4596 4.50999C62.4608 4.50999 62.4621 4.50999 62.4633 4.50999C62.4646 4.50999 62.4658 4.50999 62.4671 4.50999C62.4683 4.50999 62.4695 4.50999 62.4708 4.50999C62.472 4.50999 62.4733 4.50999 62.4745 4.50999C62.4757 4.50999 62.477 4.50999 62.4782 4.50999C62.4795 4.50999 62.4807 4.50999 62.4819 4.50999C62.4832 4.50999 62.4844 4.50999 62.4857 4.50999C62.4869 4.50999 62.4881 4.50999 62.4894 4.50999C62.4906 4.50999 62.4919 4.50999 62.4931 4.50999C62.4944 4.50999 62.4956 4.50999 62.4968 4.50999C62.4981 4.50999 62.4993 4.50999 62.5006 4.50999C62.5018 4.50999 62.503 4.50999 62.5043 4.50999C62.5055 4.50999 62.5068 4.50999 62.508 4.50999C62.5092 4.50999 62.5105 4.50999 62.5117 4.50999C62.513 4.50999 62.5142 4.50999 62.5154 4.50999C62.5167 4.50999 62.5179 4.50999 62.5192 4.50999C62.5204 4.50999 62.5217 4.50999 62.5229 4.50999C62.5241 4.50999 62.5254 4.50999 62.5266 4.50999C62.5279 4.50999 62.5291 4.50999 62.5303 4.50999C62.5316 4.50999 62.5328 4.50999 62.5341 4.50999C62.5353 4.50999 62.5365 4.50999 62.5378 4.50999C62.539 4.50999 62.5403 4.50999 62.5415 4.50999C62.5427 4.50999 62.544 4.50999 62.5452 4.50999C62.5465 4.50999 62.5477 4.50999 62.5489 4.50999C62.5502 4.50999 62.5514 4.50999 62.5527 4.50999C62.5539 4.50999 62.5551 4.50999 62.5564 4.50999C62.5576 4.50999 62.5589 4.50999 62.5601 4.50999C62.5614 4.50999 62.5626 4.50999 62.5638 4.50999C62.5651 4.50999 62.5663 4.50999 62.5676 4.50999C62.5688 4.50999 62.57 4.50999 62.5713 4.50999C62.5725 4.50999 62.5738 4.50999 62.575 4.50999C62.5762 4.50999 62.5775 4.50999 62.5787 4.50999C62.58 4.50999 62.5812 4.50999 62.5824 4.50999C62.5837 4.50999 62.5849 4.50999 62.5862 4.50999C62.5874 4.50999 62.5886 4.50999 62.5899 4.50999C62.5911 4.50999 62.5924 4.50999 62.5936 4.50999C62.5948 4.50999 62.5961 4.50999 62.5973 4.50999C62.5986 4.50999 62.5998 4.50999 62.601 4.50999C62.6023 4.50999 62.6035 4.50999 62.6048 4.50999C62.606 4.50999 62.6073 4.50999 62.6085 4.50999C62.6097 4.50999 62.611 4.50999 62.6122 4.50999C62.6135 4.50999 62.6147 4.50999 62.6159 4.50999C62.6172 4.50999 62.6184 4.50999 62.6197 4.50999C62.6209 4.50999 62.6221 4.50999 62.6234 4.50999C62.6246 4.50999 62.6259 4.50999 62.6271 4.50999C62.6283 4.50999 62.6296 4.50999 62.6308 4.50999C62.6321 4.50999 62.6333 4.50999 62.6345 4.50999C62.6358 4.50999 62.637 4.50999 62.6383 4.50999C62.6395 4.50999 62.6407 4.50999 62.642 4.50999C62.6432 4.50999 62.6445 4.50999 62.6457 4.50999C62.6469 4.50999 62.6482 4.50999 62.6494 4.50999C62.6507 4.50999 62.6519 4.50999 62.6531 4.50999C62.6544 4.50999 62.6556 4.50999 62.6569 4.50999C62.6581 4.50999 62.6593 4.50999 62.6606 4.50999C62.6618 4.50999 62.6631 4.50999 62.6643 4.50999C62.6655 4.50999 62.6668 4.50999 62.668 4.50999C62.6693 4.50999 62.6705 4.50999 62.6717 4.50999C62.673 4.50999 62.6742 4.50999 62.6755 4.50999C62.6767 4.50999 62.6779 4.50999 62.6792 4.50999C62.6804 4.50999 62.6817 4.50999 62.6829 4.50999C62.6842 4.50999 62.6854 4.50999 62.6866 4.50999C62.6879 4.50999 62.6891 4.50999 62.6904 4.50999C62.6916 4.50999 62.6928 4.50999 62.6941 4.50999C62.6953 4.50999 62.6966 4.50999 62.6978 4.50999C62.699 4.50999 62.7003 4.50999 62.7015 4.50999C62.7028 4.50999 62.704 4.50999 62.7052 4.50999C62.7065 4.50999 62.7077 4.50999 62.709 4.50999C62.7102 4.50999 62.7114 4.50999 62.7127 4.50999C62.7139 4.50999 62.7152 4.50999 62.7164 4.50999C62.7176 4.50999 62.7189 4.50999 62.7201 4.50999C62.7214 4.50999 62.7226 4.50999 62.7238 4.50999C62.7251 4.50999 62.7263 4.50999 62.7276 4.50999C62.7288 4.50999 62.73 4.50999 62.7313 4.50999C62.7325 4.50999 62.7338 4.50999 62.735 4.50999C62.7362 4.50999 62.7375 4.50999 62.7387 4.50999C62.74 4.50999 62.7412 4.50999 62.7424 4.50999C62.7437 4.50999 62.7449 4.50999 62.7462 4.50999C62.7474 4.50999 62.7486 4.50999 62.7499 4.50999C62.7511 4.50999 62.7524 4.50999 62.7536 4.50999C62.7548 4.50999 62.7561 4.50999 62.7573 4.50999C62.7586 4.50999 62.7598 4.50999 62.761 4.50999C62.7623 4.50999 62.7635 4.50999 62.7648 4.50999C62.766 4.50999 62.7672 4.50999 62.7685 4.50999C62.7697 4.50999 62.771 4.50999 62.7722 4.50999C62.7734 4.50999 62.7747 4.50999 62.7759 4.50999C62.7772 4.50999 62.7784 4.50999 62.7796 4.50999C62.7809 4.50999 62.7821 4.50999 62.7834 4.50999C62.7846 4.50999 62.7859 4.50999 62.7871 4.50999C62.7883 4.50999 62.7896 4.50999 62.7908 4.50999C62.7921 4.50999 62.7933 4.50999 62.7945 4.50999C62.7958 4.50999 62.797 4.50999 62.7983 4.50999C62.7995 4.50999 62.8007 4.50999 62.802 4.50999C62.8032 4.50999 62.8045 4.50999 62.8057 4.50999C62.8069 4.50999 62.8082 4.50999 62.8094 4.50999C62.8107 4.50999 62.8119 4.50999 62.8131 4.50999C62.8144 4.50999 62.8156 4.50999 62.8169 4.50999C62.8181 4.50999 62.8193 4.50999 62.8206 4.50999C62.8218 4.50999 62.8231 4.50999 62.8243 4.50999C62.8255 4.50999 62.8268 4.50999 62.828 4.50999C62.8293 4.50999 62.8305 4.50999 62.8317 4.50999C62.833 4.50999 62.8342 4.50999 62.8355 4.50999C62.8367 4.50999 62.8379 4.50999 62.8392 4.50999C62.8404 4.50999 62.8417 4.50999 62.8429 4.50999C62.8441 4.50999 62.8454 4.50999 62.8466 4.50999C62.8479 4.50999 62.8491 4.50999 62.8503 4.50999C62.8516 4.50999 62.8528 4.50999 62.8541 4.50999C62.8553 4.50999 62.8565 4.50999 62.8578 4.50999C62.859 4.50999 62.8603 4.50999 62.8615 4.50999C62.8628 4.50999 62.864 4.50999 62.8652 4.50999C62.8665 4.50999 62.8677 4.50999 62.869 4.50999C62.8702 4.50999 62.8714 4.50999 62.8727 4.50999C62.8739 4.50999 62.8752 4.50999 62.8764 4.50999C62.8776 4.50999 62.8789 4.50999 62.8801 4.50999C62.8814 4.50999 62.8826 4.50999 62.8838 4.50999C62.8851 4.50999 62.8863 4.50999 62.8876 4.50999C62.8888 4.50999 62.89 4.50999 62.8913 4.50999C62.8925 4.50999 62.8938 4.50999 62.895 4.50999C62.8962 4.50999 62.8975 4.50999 62.8987 4.50999C62.9 4.50999 62.9012 4.50999 62.9024 4.50999C62.9037 4.50999 62.9049 4.50999 62.9062 4.50999C62.9074 4.50999 62.9086 4.50999 62.9099 4.50999C62.9111 4.50999 62.9124 4.50999 62.9136 4.50999C62.9149 4.50999 62.9161 4.50999 62.9173 4.50999C62.9186 4.50999 62.9198 4.50999 62.9211 4.50999C62.9223 4.50999 62.9235 4.50999 62.9248 4.50999C62.926 4.50999 62.9273 4.50999 62.9285 4.50999C62.9297 4.50999 62.931 4.50999 62.9322 4.50999C62.9335 4.50999 62.9347 4.50999 62.9359 4.50999C62.9372 4.50999 62.9384 4.50999 62.9397 4.50999C62.9409 4.50999 62.9421 4.50999 62.9434 4.50999C62.9446 4.50999 62.9459 4.50999 62.9471 4.50999C62.9483 4.50999 62.9496 4.50999 62.9508 4.50999C62.9521 4.50999 62.9533 4.50999 62.9546 4.50999C62.9558 4.50999 62.957 4.50999 62.9583 4.50999C62.9595 4.50999 62.9608 4.50999 62.962 4.50999C62.9632 4.50999 62.9645 4.50999 62.9657 4.50999C62.967 4.50999 62.9682 4.50999 62.9694 4.50999C62.9707 4.50999 62.9719 4.50999 62.9732 4.50999C62.9744 4.50999 62.9756 4.50999 62.9769 4.50999C62.9781 4.50999 62.9794 4.50999 62.9806 4.50999C62.9819 4.50999 62.9831 4.50999 62.9843 4.50999C62.9856 4.50999 62.9868 4.50999 62.9881 4.50999C62.9893 4.50999 62.9905 4.50999 62.9918 4.50999C62.993 4.50999 62.9943 4.50999 62.9955 4.50999C62.9967 4.50999 62.998 4.50999 62.9992 4.50999C63.0005 4.50999 63.0017 4.50999 63.0029 4.50999C63.0042 4.50999 63.0054 4.50999 63.0067 4.50999C63.0079 4.50999 63.0092 4.50999 63.0104 4.50999C63.0116 4.50999 63.0129 4.50999 63.0141 4.50999C63.0154 4.50999 63.0166 4.50999 63.0178 4.50999C63.0191 4.50999 63.0203 4.50999 63.0216 4.50999C63.0228 4.50999 63.024 4.50999 63.0253 4.50999C63.0265 4.50999 63.0278 4.50999 63.029 4.50999C63.0303 4.50999 63.0315 4.50999 63.0327 4.50999C63.034 4.50999 63.0352 4.50999 63.0365 4.50999C63.0377 4.50999 63.0389 4.50999 63.0402 4.50999C63.0414 4.50999 63.0427 4.50999 63.0439 4.50999C63.0451 4.50999 63.0464 4.50999 63.0476 4.50999C63.0489 4.50999 63.0501 4.50999 63.0514 4.50999C63.0526 4.50999 63.0538 4.50999 63.0551 4.50999C63.0563 4.50999 63.0576 4.50999 63.0588 4.50999C63.06 4.50999 63.0613 4.50999 63.0625 4.50999C63.0638 4.50999 63.065 4.50999 63.0662 4.50999C63.0675 4.50999 63.0687 4.50999 63.07 4.50999C63.0712 4.50999 63.0725 4.50999 63.0737 4.50999C63.0749 4.50999 63.0762 4.50999 63.0774 4.50999C63.0787 4.50999 63.0799 4.50999 63.0811 4.50999C63.0824 4.50999 63.0836 4.50999 63.0849 4.50999C63.0861 4.50999 63.0874 4.50999 63.0886 4.50999C63.0898 4.50999 63.0911 4.50999 63.0923 4.50999C63.0936 4.50999 63.0948 4.50999 63.096 4.50999C63.0973 4.50999 63.0985 4.50999 63.0998 4.50999C63.101 4.50999 63.1023 4.50999 63.1035 4.50999C63.1047 4.50999 63.106 4.50999 63.1072 4.50999C63.1085 4.50999 63.1097 4.50999 63.1109 4.50999C63.1122 4.50999 63.1134 4.50999 63.1147 4.50999C63.1159 4.50999 63.1172 4.50999 63.1184 4.50999C63.1196 4.50999 63.1209 4.50999 63.1221 4.50999C63.1234 4.50999 63.1246 4.50999 63.1258 4.50999C63.1271 4.50999 63.1283 4.50999 63.1296 4.50999C63.1308 4.50999 63.1321 4.50999 63.1333 4.50999C63.1345 4.50999 63.1358 4.50999 63.137 4.50999C63.1383 4.50999 63.1395 4.50999 63.1408 4.50999C63.142 4.50999 63.1432 4.50999 63.1445 4.50999C63.1457 4.50999 63.147 4.50999 63.1482 4.50999C63.1494 4.50999 63.1507 4.50999 63.1519 4.50999C63.1532 4.50999 63.1544 4.50999 63.1557 4.50999C63.1569 4.50999 63.1581 4.50999 63.1594 4.50999C63.1606 4.50999 63.1619 4.50999 63.1631 4.50999C63.1644 4.50999 63.1656 4.50999 63.1668 4.50999C63.1681 4.50999 63.1693 4.50999 63.1706 4.50999C63.1718 4.50999 63.173 4.50999 63.1743 4.50999C63.1755 4.50999 63.1768 4.50999 63.178 4.50999C63.1793 4.50999 63.1805 4.50999 63.1817 4.50999C63.183 4.50999 63.1842 4.50999 63.1855 4.50999C63.1867 4.50999 63.188 4.50999 63.1892 4.50999C63.1904 4.50999 63.1917 4.50999 63.1929 4.50999C63.1942 4.50999 63.1954 4.50999 63.1967 4.50999C63.1979 4.50999 63.1991 4.50999 63.2004 4.50999C63.2016 4.50999 63.2029 4.50999 63.2041 4.50999C63.2054 4.50999 63.2066 4.50999 63.2078 4.50999C63.2091 4.50999 63.2103 4.50999 63.2116 4.50999C63.2128 4.50999 63.214 4.50999 63.2153 4.50999C63.2165 4.50999 63.2178 4.50999 63.219 4.50999C63.2203 4.50999 63.2215 4.50999 63.2227 4.50999C63.224 4.50999 63.2252 4.50999 63.2265 4.50999C63.2277 4.50999 63.229 4.50999 63.2302 4.50999C63.2314 4.50999 63.2327 4.50999 63.2339 4.50999C63.2352 4.50999 63.2364 4.50999 63.2377 4.50999C63.2389 4.50999 63.2401 4.50999 63.2414 4.50999C63.2426 4.50999 63.2439 4.50999 63.2451 4.50999C63.2464 4.50999 63.2476 4.50999 63.2489 4.50999C63.2501 4.50999 63.2513 4.50999 63.2526 4.50999C63.2538 4.50999 63.2551 4.50999 63.2563 4.50999C63.2576 4.50999 63.2588 4.50999 63.26 4.50999C63.2613 4.50999 63.2625 4.50999 63.2638 4.50999C63.265 4.50999 63.2663 4.50999 63.2675 4.50999C63.2687 4.50999 63.27 4.50999 63.2712 4.50999C63.2725 4.50999 63.2737 4.50999 63.275 4.50999C63.2762 4.50999 63.2774 4.50999 63.2787 4.50999C63.2799 4.50999 63.2812 4.50999 63.2824 4.50999C63.2837 4.50999 63.2849 4.50999 63.2861 4.50999C63.2874 4.50999 63.2886 4.50999 63.2899 4.50999C63.2911 4.50999 63.2924 4.50999 63.2936 4.50999C63.2949 4.50999 63.2961 4.50999 63.2973 4.50999C63.2986 4.50999 63.2998 4.50999 63.3011 4.50999C63.3023 4.50999 63.3036 4.50999 63.3048 4.50999C63.306 4.50999 63.3073 4.50999 63.3085 4.50999C63.3098 4.50999 63.311 4.50999 63.3123 4.50999C63.3135 4.50999 63.3148 4.50999 63.316 4.50999C63.3172 4.50999 63.3185 4.50999 63.3197 4.50999C63.321 4.50999 63.3222 4.50999 63.3235 4.50999C63.3247 4.50999 63.3259 4.50999 63.3272 4.50999C63.3284 4.50999 63.3297 4.50999 63.3309 4.50999C63.3322 4.50999 63.3334 4.50999 63.3347 4.50999C63.3359 4.50999 63.3371 4.50999 63.3384 4.50999C63.3396 4.50999 63.3409 4.50999 63.3421 4.50999C63.3434 4.50999 63.3446 4.50999 63.3459 4.50999C63.3471 4.50999 63.3483 4.50999 63.3496 4.50999C63.3508 4.50999 63.3521 4.50999 63.3533 4.50999C63.3546 4.50999 63.3558 4.50999 63.3571 4.50999C63.3583 4.50999 63.3595 4.50999 63.3608 4.50999C63.362 4.50999 63.3633 4.50999 63.3645 4.50999C63.3658 4.50999 63.367 4.50999 63.3683 4.50999C63.3695 4.50999 63.3707 4.50999 63.372 4.50999C63.3732 4.50999 63.3745 4.50999 63.3757 4.50999C63.377 4.50999 63.3782 4.50999 63.3795 4.50999C63.3807 4.50999 63.3819 4.50999 63.3832 4.50999C63.3844 4.50999 63.3857 4.50999 63.3869 4.50999C63.3882 4.50999 63.3894 4.50999 63.3907 4.50999C63.3919 4.50999 63.3931 4.50999 63.3944 4.50999C63.3956 4.50999 63.3969 4.50999 63.3981 4.50999C63.3994 4.50999 63.4006 4.50999 63.4019 4.50999C63.4031 4.50999 63.4044 4.50999 63.4056 4.50999C63.4068 4.50999 63.4081 4.50999 63.4093 4.50999C63.4106 4.50999 63.4118 4.50999 63.4131 4.50999C63.4143 4.50999 63.4156 4.50999 63.4168 4.50999C63.418 4.50999 63.4193 4.50999 63.4205 4.50999C63.4218 4.50999 63.423 4.50999 63.4243 4.50999C63.4255 4.50999 63.4268 4.50999 63.428 4.50999C63.4293 4.50999 63.4305 4.50999 63.4317 4.50999C63.433 4.50999 63.4342 4.50999 63.4355 4.50999C63.4367 4.50999 63.438 4.50999 63.4392 4.50999C63.4405 4.50999 63.4417 4.50999 63.443 4.50999C63.4442 4.50999 63.4454 4.50999 63.4467 4.50999C63.4479 4.50999 63.4492 4.50999 63.4504 4.50999C63.4517 4.50999 63.4529 4.50999 63.4542 4.50999C63.4554 4.50999 63.4567 4.50999 63.4579 4.50999C63.4592 4.50999 63.4604 4.50999 63.4616 4.50999C63.4629 4.50999 63.4641 4.50999 63.4654 4.50999C63.4666 4.50999 63.4679 4.50999 63.4691 4.50999C63.4704 4.50999 63.4716 4.50999 63.4729 4.50999C63.4741 4.50999 63.4754 4.50999 63.4766 4.50999C63.4778 4.50999 63.4791 4.50999 63.4803 4.50999C63.4816 4.50999 63.4828 4.50999 63.4841 4.50999C63.4853 4.50999 63.4866 4.50999 63.4878 4.50999C63.4891 4.50999 63.4903 4.50999 63.4916 4.50999C63.4928 4.50999 63.494 4.50999 63.4953 4.50999C63.4965 4.50999 63.4978 4.50999 63.499 4.50999C63.5003 4.50999 63.5015 4.50999 63.5028 4.50999C63.504 4.50999 63.5053 4.50999 63.5065 4.50999C63.5078 4.50999 63.509 4.50999 63.5102 4.50999C63.5115 4.50999 63.5127 4.50999 63.514 4.50999C63.5152 4.50999 63.5165 4.50999 63.5177 4.50999C63.519 4.50999 63.5202 4.50999 63.5215 4.50999C63.5227 4.50999 63.524 4.50999 63.5252 4.50999C63.5265 4.50999 63.5277 4.50999 63.529 4.50999C63.5302 4.50999 63.5314 4.50999 63.5327 4.50999C63.5339 4.50999 63.5352 4.50999 63.5364 4.50999C63.5377 4.50999 63.5389 4.50999 63.5402 4.50999C63.5414 4.50999 63.5427 4.50999 63.5439 4.50999C63.5452 4.50999 63.5464 4.50999 63.5477 4.50999C63.5489 4.50999 63.5502 4.50999 63.5514 4.50999C63.5526 4.50999 63.5539 4.50999 63.5551 4.50999C63.5564 4.50999 63.5576 4.50999 63.5589 4.50999C63.5601 4.50999 63.5614 4.50999 63.5626 4.50999C63.5639 4.50999 63.5651 4.50999 63.5664 4.50999C63.5676 4.50999 63.5689 4.50999 63.5701 4.50999C63.5714 4.50999 63.5726 4.50999 63.5739 4.50999C63.5751 4.50999 63.5764 4.50999 63.5776 4.50999C63.5788 4.50999 63.5801 4.50999 63.5813 4.50999C63.5826 4.50999 63.5838 4.50999 63.5851 4.50999C63.5863 4.50999 63.5876 4.50999 63.5888 4.50999C63.5901 4.50999 63.5913 4.50999 63.5926 4.50999C63.5938 4.50999 63.5951 4.50999 63.5963 4.50999C63.5976 4.50999 63.5988 4.50999 63.6001 4.50999C63.6013 4.50999 63.6026 4.50999 63.6038 4.50999C63.6051 4.50999 63.6063 4.50999 63.6076 4.50999C63.6088 4.50999 63.6101 4.50999 63.6113 4.50999C63.6125 4.50999 63.6138 4.50999 63.615 4.50999C63.6163 4.50999 63.6175 4.50999 63.6188 4.50999C63.62 4.50999 63.6213 4.50999 63.6225 4.50999C63.6238 4.50999 63.625 4.50999 63.6263 4.50999C63.6275 4.50999 63.6288 4.50999 63.63 4.50999C63.6313 4.50999 63.6325 4.50999 63.6338 4.50999C63.635 4.50999 63.6363 4.50999 63.6375 4.50999C63.6388 4.50999 63.64 4.50999 63.6413 4.50999C63.6425 4.50999 63.6438 4.50999 63.645 4.50999C63.6463 4.50999 63.6475 4.50999 63.6488 4.50999C63.65 4.50999 63.6513 4.50999 63.6525 4.50999C63.6538 4.50999 63.655 4.50999 63.6563 4.50999C63.6575 4.50999 63.6588 4.50999 63.66 4.50999C63.6613 4.50999 63.6625 4.50999 63.6638 4.50999C63.665 4.50999 63.6663 4.50999 63.6675 4.50999C63.6688 4.50999 63.67 4.50999 63.6713 4.50999C63.6725 4.50999 63.6738 4.50999 63.675 4.50999C63.6763 4.50999 63.6775 4.50999 63.6788 4.50999C63.68 4.50999 63.6813 4.50999 63.6825 4.50999C63.6838 4.50999 63.685 4.50999 63.6863 4.50999C63.6875 4.50999 63.6888 4.50999 63.69 4.50999V3.50999C63.6888 3.50999 63.6875 3.50999 63.6863 3.50999C63.685 3.50999 63.6838 3.50999 63.6825 3.50999C63.6813 3.50999 63.68 3.50999 63.6788 3.50999C63.6775 3.50999 63.6763 3.50999 63.675 3.50999C63.6738 3.50999 63.6725 3.50999 63.6713 3.50999C63.67 3.50999 63.6688 3.50999 63.6675 3.50999C63.6663 3.50999 63.665 3.50999 63.6638 3.50999C63.6625 3.50999 63.6613 3.50999 63.66 3.50999C63.6588 3.50999 63.6575 3.50999 63.6563 3.50999C63.655 3.50999 63.6538 3.50999 63.6525 3.50999C63.6513 3.50999 63.65 3.50999 63.6488 3.50999C63.6475 3.50999 63.6463 3.50999 63.645 3.50999C63.6438 3.50999 63.6425 3.50999 63.6413 3.50999C63.64 3.50999 63.6388 3.50999 63.6375 3.50999C63.6363 3.50999 63.635 3.50999 63.6338 3.50999C63.6325 3.50999 63.6313 3.50999 63.63 3.50999C63.6288 3.50999 63.6275 3.50999 63.6263 3.50999C63.625 3.50999 63.6238 3.50999 63.6225 3.50999C63.6213 3.50999 63.62 3.50999 63.6188 3.50999C63.6175 3.50999 63.6163 3.50999 63.615 3.50999C63.6138 3.50999 63.6125 3.50999 63.6113 3.50999C63.6101 3.50999 63.6088 3.50999 63.6076 3.50999C63.6063 3.50999 63.6051 3.50999 63.6038 3.50999C63.6026 3.50999 63.6013 3.50999 63.6001 3.50999C63.5988 3.50999 63.5976 3.50999 63.5963 3.50999C63.5951 3.50999 63.5938 3.50999 63.5926 3.50999C63.5913 3.50999 63.5901 3.50999 63.5888 3.50999C63.5876 3.50999 63.5863 3.50999 63.5851 3.50999C63.5838 3.50999 63.5826 3.50999 63.5813 3.50999C63.5801 3.50999 63.5788 3.50999 63.5776 3.50999C63.5764 3.50999 63.5751 3.50999 63.5739 3.50999C63.5726 3.50999 63.5714 3.50999 63.5701 3.50999C63.5689 3.50999 63.5676 3.50999 63.5664 3.50999C63.5651 3.50999 63.5639 3.50999 63.5626 3.50999C63.5614 3.50999 63.5601 3.50999 63.5589 3.50999C63.5576 3.50999 63.5564 3.50999 63.5551 3.50999C63.5539 3.50999 63.5526 3.50999 63.5514 3.50999C63.5502 3.50999 63.5489 3.50999 63.5477 3.50999C63.5464 3.50999 63.5452 3.50999 63.5439 3.50999C63.5427 3.50999 63.5414 3.50999 63.5402 3.50999C63.5389 3.50999 63.5377 3.50999 63.5364 3.50999C63.5352 3.50999 63.5339 3.50999 63.5327 3.50999C63.5314 3.50999 63.5302 3.50999 63.529 3.50999C63.5277 3.50999 63.5265 3.50999 63.5252 3.50999C63.524 3.50999 63.5227 3.50999 63.5215 3.50999C63.5202 3.50999 63.519 3.50999 63.5177 3.50999C63.5165 3.50999 63.5152 3.50999 63.514 3.50999C63.5127 3.50999 63.5115 3.50999 63.5102 3.50999C63.509 3.50999 63.5078 3.50999 63.5065 3.50999C63.5053 3.50999 63.504 3.50999 63.5028 3.50999C63.5015 3.50999 63.5003 3.50999 63.499 3.50999C63.4978 3.50999 63.4965 3.50999 63.4953 3.50999C63.494 3.50999 63.4928 3.50999 63.4916 3.50999C63.4903 3.50999 63.4891 3.50999 63.4878 3.50999C63.4866 3.50999 63.4853 3.50999 63.4841 3.50999C63.4828 3.50999 63.4816 3.50999 63.4803 3.50999C63.4791 3.50999 63.4778 3.50999 63.4766 3.50999C63.4754 3.50999 63.4741 3.50999 63.4729 3.50999C63.4716 3.50999 63.4704 3.50999 63.4691 3.50999C63.4679 3.50999 63.4666 3.50999 63.4654 3.50999C63.4641 3.50999 63.4629 3.50999 63.4616 3.50999C63.4604 3.50999 63.4592 3.50999 63.4579 3.50999C63.4567 3.50999 63.4554 3.50999 63.4542 3.50999C63.4529 3.50999 63.4517 3.50999 63.4504 3.50999C63.4492 3.50999 63.4479 3.50999 63.4467 3.50999C63.4454 3.50999 63.4442 3.50999 63.443 3.50999C63.4417 3.50999 63.4405 3.50999 63.4392 3.50999C63.438 3.50999 63.4367 3.50999 63.4355 3.50999C63.4342 3.50999 63.433 3.50999 63.4317 3.50999C63.4305 3.50999 63.4293 3.50999 63.428 3.50999C63.4268 3.50999 63.4255 3.50999 63.4243 3.50999C63.423 3.50999 63.4218 3.50999 63.4205 3.50999C63.4193 3.50999 63.418 3.50999 63.4168 3.50999C63.4156 3.50999 63.4143 3.50999 63.4131 3.50999C63.4118 3.50999 63.4106 3.50999 63.4093 3.50999C63.4081 3.50999 63.4068 3.50999 63.4056 3.50999C63.4044 3.50999 63.4031 3.50999 63.4019 3.50999C63.4006 3.50999 63.3994 3.50999 63.3981 3.50999C63.3969 3.50999 63.3956 3.50999 63.3944 3.50999C63.3931 3.50999 63.3919 3.50999 63.3907 3.50999C63.3894 3.50999 63.3882 3.50999 63.3869 3.50999C63.3857 3.50999 63.3844 3.50999 63.3832 3.50999C63.3819 3.50999 63.3807 3.50999 63.3795 3.50999C63.3782 3.50999 63.377 3.50999 63.3757 3.50999C63.3745 3.50999 63.3732 3.50999 63.372 3.50999C63.3707 3.50999 63.3695 3.50999 63.3683 3.50999C63.367 3.50999 63.3658 3.50999 63.3645 3.50999C63.3633 3.50999 63.362 3.50999 63.3608 3.50999C63.3595 3.50999 63.3583 3.50999 63.3571 3.50999C63.3558 3.50999 63.3546 3.50999 63.3533 3.50999C63.3521 3.50999 63.3508 3.50999 63.3496 3.50999C63.3483 3.50999 63.3471 3.50999 63.3459 3.50999C63.3446 3.50999 63.3434 3.50999 63.3421 3.50999C63.3409 3.50999 63.3396 3.50999 63.3384 3.50999C63.3371 3.50999 63.3359 3.50999 63.3347 3.50999C63.3334 3.50999 63.3322 3.50999 63.3309 3.50999C63.3297 3.50999 63.3284 3.50999 63.3272 3.50999C63.3259 3.50999 63.3247 3.50999 63.3235 3.50999C63.3222 3.50999 63.321 3.50999 63.3197 3.50999C63.3185 3.50999 63.3172 3.50999 63.316 3.50999C63.3148 3.50999 63.3135 3.50999 63.3123 3.50999C63.311 3.50999 63.3098 3.50999 63.3085 3.50999C63.3073 3.50999 63.306 3.50999 63.3048 3.50999C63.3036 3.50999 63.3023 3.50999 63.3011 3.50999C63.2998 3.50999 63.2986 3.50999 63.2973 3.50999C63.2961 3.50999 63.2949 3.50999 63.2936 3.50999C63.2924 3.50999 63.2911 3.50999 63.2899 3.50999C63.2886 3.50999 63.2874 3.50999 63.2861 3.50999C63.2849 3.50999 63.2837 3.50999 63.2824 3.50999C63.2812 3.50999 63.2799 3.50999 63.2787 3.50999C63.2774 3.50999 63.2762 3.50999 63.275 3.50999C63.2737 3.50999 63.2725 3.50999 63.2712 3.50999C63.27 3.50999 63.2687 3.50999 63.2675 3.50999C63.2663 3.50999 63.265 3.50999 63.2638 3.50999C63.2625 3.50999 63.2613 3.50999 63.26 3.50999C63.2588 3.50999 63.2576 3.50999 63.2563 3.50999C63.2551 3.50999 63.2538 3.50999 63.2526 3.50999C63.2513 3.50999 63.2501 3.50999 63.2489 3.50999C63.2476 3.50999 63.2464 3.50999 63.2451 3.50999C63.2439 3.50999 63.2426 3.50999 63.2414 3.50999C63.2401 3.50999 63.2389 3.50999 63.2377 3.50999C63.2364 3.50999 63.2352 3.50999 63.2339 3.50999C63.2327 3.50999 63.2314 3.50999 63.2302 3.50999C63.229 3.50999 63.2277 3.50999 63.2265 3.50999C63.2252 3.50999 63.224 3.50999 63.2227 3.50999C63.2215 3.50999 63.2203 3.50999 63.219 3.50999C63.2178 3.50999 63.2165 3.50999 63.2153 3.50999C63.214 3.50999 63.2128 3.50999 63.2116 3.50999C63.2103 3.50999 63.2091 3.50999 63.2078 3.50999C63.2066 3.50999 63.2054 3.50999 63.2041 3.50999C63.2029 3.50999 63.2016 3.50999 63.2004 3.50999C63.1991 3.50999 63.1979 3.50999 63.1967 3.50999C63.1954 3.50999 63.1942 3.50999 63.1929 3.50999C63.1917 3.50999 63.1904 3.50999 63.1892 3.50999C63.188 3.50999 63.1867 3.50999 63.1855 3.50999C63.1842 3.50999 63.183 3.50999 63.1817 3.50999C63.1805 3.50999 63.1793 3.50999 63.178 3.50999C63.1768 3.50999 63.1755 3.50999 63.1743 3.50999C63.173 3.50999 63.1718 3.50999 63.1706 3.50999C63.1693 3.50999 63.1681 3.50999 63.1668 3.50999C63.1656 3.50999 63.1644 3.50999 63.1631 3.50999C63.1619 3.50999 63.1606 3.50999 63.1594 3.50999C63.1581 3.50999 63.1569 3.50999 63.1557 3.50999C63.1544 3.50999 63.1532 3.50999 63.1519 3.50999C63.1507 3.50999 63.1494 3.50999 63.1482 3.50999C63.147 3.50999 63.1457 3.50999 63.1445 3.50999C63.1432 3.50999 63.142 3.50999 63.1408 3.50999C63.1395 3.50999 63.1383 3.50999 63.137 3.50999C63.1358 3.50999 63.1345 3.50999 63.1333 3.50999C63.1321 3.50999 63.1308 3.50999 63.1296 3.50999C63.1283 3.50999 63.1271 3.50999 63.1258 3.50999C63.1246 3.50999 63.1234 3.50999 63.1221 3.50999C63.1209 3.50999 63.1196 3.50999 63.1184 3.50999C63.1172 3.50999 63.1159 3.50999 63.1147 3.50999C63.1134 3.50999 63.1122 3.50999 63.1109 3.50999C63.1097 3.50999 63.1085 3.50999 63.1072 3.50999C63.106 3.50999 63.1047 3.50999 63.1035 3.50999C63.1023 3.50999 63.101 3.50999 63.0998 3.50999C63.0985 3.50999 63.0973 3.50999 63.096 3.50999C63.0948 3.50999 63.0936 3.50999 63.0923 3.50999C63.0911 3.50999 63.0898 3.50999 63.0886 3.50999C63.0874 3.50999 63.0861 3.50999 63.0849 3.50999C63.0836 3.50999 63.0824 3.50999 63.0811 3.50999C63.0799 3.50999 63.0787 3.50999 63.0774 3.50999C63.0762 3.50999 63.0749 3.50999 63.0737 3.50999C63.0725 3.50999 63.0712 3.50999 63.07 3.50999C63.0687 3.50999 63.0675 3.50999 63.0662 3.50999C63.065 3.50999 63.0638 3.50999 63.0625 3.50999C63.0613 3.50999 63.06 3.50999 63.0588 3.50999C63.0576 3.50999 63.0563 3.50999 63.0551 3.50999C63.0538 3.50999 63.0526 3.50999 63.0514 3.50999C63.0501 3.50999 63.0489 3.50999 63.0476 3.50999C63.0464 3.50999 63.0451 3.50999 63.0439 3.50999C63.0427 3.50999 63.0414 3.50999 63.0402 3.50999C63.0389 3.50999 63.0377 3.50999 63.0365 3.50999C63.0352 3.50999 63.034 3.50999 63.0327 3.50999C63.0315 3.50999 63.0303 3.50999 63.029 3.50999C63.0278 3.50999 63.0265 3.50999 63.0253 3.50999C63.024 3.50999 63.0228 3.50999 63.0216 3.50999C63.0203 3.50999 63.0191 3.50999 63.0178 3.50999C63.0166 3.50999 63.0154 3.50999 63.0141 3.50999C63.0129 3.50999 63.0116 3.50999 63.0104 3.50999C63.0092 3.50999 63.0079 3.50999 63.0067 3.50999C63.0054 3.50999 63.0042 3.50999 63.0029 3.50999C63.0017 3.50999 63.0005 3.50999 62.9992 3.50999C62.998 3.50999 62.9967 3.50999 62.9955 3.50999C62.9943 3.50999 62.993 3.50999 62.9918 3.50999C62.9905 3.50999 62.9893 3.50999 62.9881 3.50999C62.9868 3.50999 62.9856 3.50999 62.9843 3.50999C62.9831 3.50999 62.9819 3.50999 62.9806 3.50999C62.9794 3.50999 62.9781 3.50999 62.9769 3.50999C62.9756 3.50999 62.9744 3.50999 62.9732 3.50999C62.9719 3.50999 62.9707 3.50999 62.9694 3.50999C62.9682 3.50999 62.967 3.50999 62.9657 3.50999C62.9645 3.50999 62.9632 3.50999 62.962 3.50999C62.9608 3.50999 62.9595 3.50999 62.9583 3.50999C62.957 3.50999 62.9558 3.50999 62.9546 3.50999C62.9533 3.50999 62.9521 3.50999 62.9508 3.50999C62.9496 3.50999 62.9483 3.50999 62.9471 3.50999C62.9459 3.50999 62.9446 3.50999 62.9434 3.50999C62.9421 3.50999 62.9409 3.50999 62.9397 3.50999C62.9384 3.50999 62.9372 3.50999 62.9359 3.50999C62.9347 3.50999 62.9335 3.50999 62.9322 3.50999C62.931 3.50999 62.9297 3.50999 62.9285 3.50999C62.9273 3.50999 62.926 3.50999 62.9248 3.50999C62.9235 3.50999 62.9223 3.50999 62.9211 3.50999C62.9198 3.50999 62.9186 3.50999 62.9173 3.50999C62.9161 3.50999 62.9149 3.50999 62.9136 3.50999C62.9124 3.50999 62.9111 3.50999 62.9099 3.50999C62.9086 3.50999 62.9074 3.50999 62.9062 3.50999C62.9049 3.50999 62.9037 3.50999 62.9024 3.50999C62.9012 3.50999 62.9 3.50999 62.8987 3.50999C62.8975 3.50999 62.8962 3.50999 62.895 3.50999C62.8938 3.50999 62.8925 3.50999 62.8913 3.50999C62.89 3.50999 62.8888 3.50999 62.8876 3.50999C62.8863 3.50999 62.8851 3.50999 62.8838 3.50999C62.8826 3.50999 62.8814 3.50999 62.8801 3.50999C62.8789 3.50999 62.8776 3.50999 62.8764 3.50999C62.8752 3.50999 62.8739 3.50999 62.8727 3.50999C62.8714 3.50999 62.8702 3.50999 62.869 3.50999C62.8677 3.50999 62.8665 3.50999 62.8652 3.50999C62.864 3.50999 62.8628 3.50999 62.8615 3.50999C62.8603 3.50999 62.859 3.50999 62.8578 3.50999C62.8565 3.50999 62.8553 3.50999 62.8541 3.50999C62.8528 3.50999 62.8516 3.50999 62.8503 3.50999C62.8491 3.50999 62.8479 3.50999 62.8466 3.50999C62.8454 3.50999 62.8441 3.50999 62.8429 3.50999C62.8417 3.50999 62.8404 3.50999 62.8392 3.50999C62.8379 3.50999 62.8367 3.50999 62.8355 3.50999C62.8342 3.50999 62.833 3.50999 62.8317 3.50999C62.8305 3.50999 62.8293 3.50999 62.828 3.50999C62.8268 3.50999 62.8255 3.50999 62.8243 3.50999C62.8231 3.50999 62.8218 3.50999 62.8206 3.50999C62.8193 3.50999 62.8181 3.50999 62.8169 3.50999C62.8156 3.50999 62.8144 3.50999 62.8131 3.50999C62.8119 3.50999 62.8107 3.50999 62.8094 3.50999C62.8082 3.50999 62.8069 3.50999 62.8057 3.50999C62.8045 3.50999 62.8032 3.50999 62.802 3.50999C62.8007 3.50999 62.7995 3.50999 62.7983 3.50999C62.797 3.50999 62.7958 3.50999 62.7945 3.50999C62.7933 3.50999 62.7921 3.50999 62.7908 3.50999C62.7896 3.50999 62.7883 3.50999 62.7871 3.50999C62.7859 3.50999 62.7846 3.50999 62.7834 3.50999C62.7821 3.50999 62.7809 3.50999 62.7796 3.50999C62.7784 3.50999 62.7772 3.50999 62.7759 3.50999C62.7747 3.50999 62.7734 3.50999 62.7722 3.50999C62.771 3.50999 62.7697 3.50999 62.7685 3.50999C62.7672 3.50999 62.766 3.50999 62.7648 3.50999C62.7635 3.50999 62.7623 3.50999 62.761 3.50999C62.7598 3.50999 62.7586 3.50999 62.7573 3.50999C62.7561 3.50999 62.7548 3.50999 62.7536 3.50999C62.7524 3.50999 62.7511 3.50999 62.7499 3.50999C62.7486 3.50999 62.7474 3.50999 62.7462 3.50999C62.7449 3.50999 62.7437 3.50999 62.7424 3.50999C62.7412 3.50999 62.74 3.50999 62.7387 3.50999C62.7375 3.50999 62.7362 3.50999 62.735 3.50999C62.7338 3.50999 62.7325 3.50999 62.7313 3.50999C62.73 3.50999 62.7288 3.50999 62.7276 3.50999C62.7263 3.50999 62.7251 3.50999 62.7238 3.50999C62.7226 3.50999 62.7214 3.50999 62.7201 3.50999C62.7189 3.50999 62.7176 3.50999 62.7164 3.50999C62.7152 3.50999 62.7139 3.50999 62.7127 3.50999C62.7114 3.50999 62.7102 3.50999 62.709 3.50999C62.7077 3.50999 62.7065 3.50999 62.7052 3.50999C62.704 3.50999 62.7028 3.50999 62.7015 3.50999C62.7003 3.50999 62.699 3.50999 62.6978 3.50999C62.6966 3.50999 62.6953 3.50999 62.6941 3.50999C62.6928 3.50999 62.6916 3.50999 62.6904 3.50999C62.6891 3.50999 62.6879 3.50999 62.6866 3.50999C62.6854 3.50999 62.6842 3.50999 62.6829 3.50999C62.6817 3.50999 62.6804 3.50999 62.6792 3.50999C62.6779 3.50999 62.6767 3.50999 62.6755 3.50999C62.6742 3.50999 62.673 3.50999 62.6717 3.50999C62.6705 3.50999 62.6693 3.50999 62.668 3.50999C62.6668 3.50999 62.6655 3.50999 62.6643 3.50999C62.6631 3.50999 62.6618 3.50999 62.6606 3.50999C62.6593 3.50999 62.6581 3.50999 62.6569 3.50999C62.6556 3.50999 62.6544 3.50999 62.6531 3.50999C62.6519 3.50999 62.6507 3.50999 62.6494 3.50999C62.6482 3.50999 62.6469 3.50999 62.6457 3.50999C62.6445 3.50999 62.6432 3.50999 62.642 3.50999C62.6407 3.50999 62.6395 3.50999 62.6383 3.50999C62.637 3.50999 62.6358 3.50999 62.6345 3.50999C62.6333 3.50999 62.6321 3.50999 62.6308 3.50999C62.6296 3.50999 62.6283 3.50999 62.6271 3.50999C62.6259 3.50999 62.6246 3.50999 62.6234 3.50999C62.6221 3.50999 62.6209 3.50999 62.6197 3.50999C62.6184 3.50999 62.6172 3.50999 62.6159 3.50999C62.6147 3.50999 62.6135 3.50999 62.6122 3.50999C62.611 3.50999 62.6097 3.50999 62.6085 3.50999C62.6073 3.50999 62.606 3.50999 62.6048 3.50999C62.6035 3.50999 62.6023 3.50999 62.601 3.50999C62.5998 3.50999 62.5986 3.50999 62.5973 3.50999C62.5961 3.50999 62.5948 3.50999 62.5936 3.50999C62.5924 3.50999 62.5911 3.50999 62.5899 3.50999C62.5886 3.50999 62.5874 3.50999 62.5862 3.50999C62.5849 3.50999 62.5837 3.50999 62.5824 3.50999C62.5812 3.50999 62.58 3.50999 62.5787 3.50999C62.5775 3.50999 62.5762 3.50999 62.575 3.50999C62.5738 3.50999 62.5725 3.50999 62.5713 3.50999C62.57 3.50999 62.5688 3.50999 62.5676 3.50999C62.5663 3.50999 62.5651 3.50999 62.5638 3.50999C62.5626 3.50999 62.5614 3.50999 62.5601 3.50999C62.5589 3.50999 62.5576 3.50999 62.5564 3.50999C62.5551 3.50999 62.5539 3.50999 62.5527 3.50999C62.5514 3.50999 62.5502 3.50999 62.5489 3.50999C62.5477 3.50999 62.5465 3.50999 62.5452 3.50999C62.544 3.50999 62.5427 3.50999 62.5415 3.50999C62.5403 3.50999 62.539 3.50999 62.5378 3.50999C62.5365 3.50999 62.5353 3.50999 62.5341 3.50999C62.5328 3.50999 62.5316 3.50999 62.5303 3.50999C62.5291 3.50999 62.5279 3.50999 62.5266 3.50999C62.5254 3.50999 62.5241 3.50999 62.5229 3.50999C62.5217 3.50999 62.5204 3.50999 62.5192 3.50999C62.5179 3.50999 62.5167 3.50999 62.5154 3.50999C62.5142 3.50999 62.513 3.50999 62.5117 3.50999C62.5105 3.50999 62.5092 3.50999 62.508 3.50999C62.5068 3.50999 62.5055 3.50999 62.5043 3.50999C62.503 3.50999 62.5018 3.50999 62.5006 3.50999C62.4993 3.50999 62.4981 3.50999 62.4968 3.50999C62.4956 3.50999 62.4944 3.50999 62.4931 3.50999C62.4919 3.50999 62.4906 3.50999 62.4894 3.50999C62.4881 3.50999 62.4869 3.50999 62.4857 3.50999C62.4844 3.50999 62.4832 3.50999 62.4819 3.50999C62.4807 3.50999 62.4795 3.50999 62.4782 3.50999C62.477 3.50999 62.4757 3.50999 62.4745 3.50999C62.4733 3.50999 62.472 3.50999 62.4708 3.50999C62.4695 3.50999 62.4683 3.50999 62.4671 3.50999C62.4658 3.50999 62.4646 3.50999 62.4633 3.50999C62.4621 3.50999 62.4608 3.50999 62.4596 3.50999C62.4584 3.50999 62.4571 3.50999 62.4559 3.50999C62.4546 3.50999 62.4534 3.50999 62.4522 3.50999C62.4509 3.50999 62.4497 3.50999 62.4484 3.50999C62.4472 3.50999 62.446 3.50999 62.4447 3.50999C62.4435 3.50999 62.4422 3.50999 62.441 3.50999C62.4397 3.50999 62.4385 3.50999 62.4373 3.50999C62.436 3.50999 62.4348 3.50999 62.4335 3.50999C62.4323 3.50999 62.4311 3.50999 62.4298 3.50999C62.4286 3.50999 62.4273 3.50999 62.4261 3.50999C62.4249 3.50999 62.4236 3.50999 62.4224 3.50999C62.4211 3.50999 62.4199 3.50999 62.4186 3.50999C62.4174 3.50999 62.4162 3.50999 62.4149 3.50999C62.4137 3.50999 62.4124 3.50999 62.4112 3.50999C62.41 3.50999 62.4087 3.50999 62.4075 3.50999C62.4062 3.50999 62.405 3.50999 62.4038 3.50999C62.4025 3.50999 62.4013 3.50999 62.4 3.50999C62.3988 3.50999 62.3975 3.50999 62.3963 3.50999C62.3951 3.50999 62.3938 3.50999 62.3926 3.50999C62.3913 3.50999 62.3901 3.50999 62.3889 3.50999C62.3876 3.50999 62.3864 3.50999 62.3851 3.50999C62.3839 3.50999 62.3826 3.50999 62.3814 3.50999C62.3802 3.50999 62.3789 3.50999 62.3777 3.50999C62.3764 3.50999 62.3752 3.50999 62.374 3.50999C62.3727 3.50999 62.3715 3.50999 62.3702 3.50999C62.369 3.50999 62.3677 3.50999 62.3665 3.50999C62.3653 3.50999 62.364 3.50999 62.3628 3.50999C62.3615 3.50999 62.3603 3.50999 62.3591 3.50999C62.3578 3.50999 62.3566 3.50999 62.3553 3.50999C62.3541 3.50999 62.3528 3.50999 62.3516 3.50999C62.3504 3.50999 62.3491 3.50999 62.3479 3.50999C62.3466 3.50999 62.3454 3.50999 62.3442 3.50999C62.3429 3.50999 62.3417 3.50999 62.3404 3.50999C62.3392 3.50999 62.3379 3.50999 62.3367 3.50999C62.3355 3.50999 62.3342 3.50999 62.333 3.50999C62.3317 3.50999 62.3305 3.50999 62.3292 3.50999C62.328 3.50999 62.3268 3.50999 62.3255 3.50999C62.3243 3.50999 62.323 3.50999 62.3218 3.50999C62.3206 3.50999 62.3193 3.50999 62.3181 3.50999C62.3168 3.50999 62.3156 3.50999 62.3143 3.50999C62.3131 3.50999 62.3119 3.50999 62.3106 3.50999C62.3094 3.50999 62.3081 3.50999 62.3069 3.50999C62.3056 3.50999 62.3044 3.50999 62.3032 3.50999C62.3019 3.50999 62.3007 3.50999 62.2994 3.50999C62.2982 3.50999 62.297 3.50999 62.2957 3.50999C62.2945 3.50999 62.2932 3.50999 62.292 3.50999C62.2907 3.50999 62.2895 3.50999 62.2883 3.50999C62.287 3.50999 62.2858 3.50999 62.2845 3.50999C62.2833 3.50999 62.282 3.50999 62.2808 3.50999C62.2796 3.50999 62.2783 3.50999 62.2771 3.50999C62.2758 3.50999 62.2746 3.50999 62.2733 3.50999C62.2721 3.50999 62.2709 3.50999 62.2696 3.50999C62.2684 3.50999 62.2671 3.50999 62.2659 3.50999C62.2647 3.50999 62.2634 3.50999 62.2622 3.50999C62.2609 3.50999 62.2597 3.50999 62.2584 3.50999C62.2572 3.50999 62.256 3.50999 62.2547 3.50999C62.2535 3.50999 62.2522 3.50999 62.251 3.50999C62.2497 3.50999 62.2485 3.50999 62.2473 3.50999C62.246 3.50999 62.2448 3.50999 62.2435 3.50999C62.2423 3.50999 62.241 3.50999 62.2398 3.50999C62.2386 3.50999 62.2373 3.50999 62.2361 3.50999C62.2348 3.50999 62.2336 3.50999 62.2323 3.50999C62.2311 3.50999 62.2299 3.50999 62.2286 3.50999C62.2274 3.50999 62.2261 3.50999 62.2249 3.50999C62.2236 3.50999 62.2224 3.50999 62.2212 3.50999C62.2199 3.50999 62.2187 3.50999 62.2174 3.50999C62.2162 3.50999 62.2149 3.50999 62.2137 3.50999C62.2124 3.50999 62.2112 3.50999 62.21 3.50999C62.2087 3.50999 62.2075 3.50999 62.2062 3.50999C62.205 3.50999 62.2037 3.50999 62.2025 3.50999C62.2013 3.50999 62.2 3.50999 62.1988 3.50999C62.1975 3.50999 62.1963 3.50999 62.195 3.50999C62.1938 3.50999 62.1926 3.50999 62.1913 3.50999C62.1901 3.50999 62.1888 3.50999 62.1876 3.50999C62.1863 3.50999 62.1851 3.50999 62.1839 3.50999C62.1826 3.50999 62.1814 3.50999 62.1801 3.50999C62.1789 3.50999 62.1776 3.50999 62.1764 3.50999C62.1751 3.50999 62.1739 3.50999 62.1727 3.50999C62.1714 3.50999 62.1702 3.50999 62.1689 3.50999C62.1677 3.50999 62.1664 3.50999 62.1652 3.50999C62.164 3.50999 62.1627 3.50999 62.1615 3.50999C62.1602 3.50999 62.159 3.50999 62.1577 3.50999C62.1565 3.50999 62.1552 3.50999 62.154 3.50999C62.1528 3.50999 62.1515 3.50999 62.1503 3.50999C62.149 3.50999 62.1478 3.50999 62.1465 3.50999C62.1453 3.50999 62.1441 3.50999 62.1428 3.50999C62.1416 3.50999 62.1403 3.50999 62.1391 3.50999C62.1378 3.50999 62.1366 3.50999 62.1353 3.50999C62.1341 3.50999 62.1329 3.50999 62.1316 3.50999C62.1304 3.50999 62.1291 3.50999 62.1279 3.50999C62.1266 3.50999 62.1254 3.50999 62.1241 3.50999C62.1229 3.50999 62.1217 3.50999 62.1204 3.50999C62.1192 3.50999 62.1179 3.50999 62.1167 3.50999C62.1154 3.50999 62.1142 3.50999 62.1129 3.50999C62.1117 3.50999 62.1105 3.50999 62.1092 3.50999C62.108 3.50999 62.1067 3.50999 62.1055 3.50999C62.1042 3.50999 62.103 3.50999 62.1017 3.50999C62.1005 3.50999 62.0993 3.50999 62.098 3.50999C62.0968 3.50999 62.0955 3.50999 62.0943 3.50999C62.093 3.50999 62.0918 3.50999 62.0905 3.50999C62.0893 3.50999 62.0881 3.50999 62.0868 3.50999C62.0856 3.50999 62.0843 3.50999 62.0831 3.50999C62.0818 3.50999 62.0806 3.50999 62.0793 3.50999C62.0781 3.50999 62.0769 3.50999 62.0756 3.50999C62.0744 3.50999 62.0731 3.50999 62.0719 3.50999C62.0706 3.50999 62.0694 3.50999 62.0681 3.50999C62.0669 3.50999 62.0656 3.50999 62.0644 3.50999C62.0632 3.50999 62.0619 3.50999 62.0607 3.50999C62.0594 3.50999 62.0582 3.50999 62.0569 3.50999C62.0557 3.50999 62.0544 3.50999 62.0532 3.50999C62.052 3.50999 62.0507 3.50999 62.0495 3.50999C62.0482 3.50999 62.047 3.50999 62.0457 3.50999C62.0445 3.50999 62.0432 3.50999 62.042 3.50999C62.0407 3.50999 62.0395 3.50999 62.0383 3.50999C62.037 3.50999 62.0358 3.50999 62.0345 3.50999C62.0333 3.50999 62.032 3.50999 62.0308 3.50999C62.0295 3.50999 62.0283 3.50999 62.027 3.50999C62.0258 3.50999 62.0246 3.50999 62.0233 3.50999C62.0221 3.50999 62.0208 3.50999 62.0196 3.50999C62.0183 3.50999 62.0171 3.50999 62.0158 3.50999C62.0146 3.50999 62.0133 3.50999 62.0121 3.50999C62.0108 3.50999 62.0096 3.50999 62.0084 3.50999C62.0071 3.50999 62.0059 3.50999 62.0046 3.50999C62.0034 3.50999 62.0021 3.50999 62.0009 3.50999C61.9996 3.50999 61.9984 3.50999 61.9971 3.50999C61.9959 3.50999 61.9947 3.50999 61.9934 3.50999C61.9922 3.50999 61.9909 3.50999 61.9897 3.50999C61.9884 3.50999 61.9872 3.50999 61.9859 3.50999C61.9847 3.50999 61.9834 3.50999 61.9822 3.50999C61.9809 3.50999 61.9797 3.50999 61.9784 3.50999C61.9772 3.50999 61.976 3.50999 61.9747 3.50999C61.9735 3.50999 61.9722 3.50999 61.971 3.50999C61.9697 3.50999 61.9685 3.50999 61.9672 3.50999C61.966 3.50999 61.9647 3.50999 61.9635 3.50999C61.9622 3.50999 61.961 3.50999 61.9598 3.50999C61.9585 3.50999 61.9573 3.50999 61.956 3.50999C61.9548 3.50999 61.9535 3.50999 61.9523 3.50999C61.951 3.50999 61.9498 3.50999 61.9485 3.50999C61.9473 3.50999 61.946 3.50999 61.9448 3.50999C61.9435 3.50999 61.9423 3.50999 61.941 3.50999C61.9398 3.50999 61.9386 3.50999 61.9373 3.50999C61.9361 3.50999 61.9348 3.50999 61.9336 3.50999C61.9323 3.50999 61.9311 3.50999 61.9298 3.50999C61.9286 3.50999 61.9273 3.50999 61.9261 3.50999C61.9248 3.50999 61.9236 3.50999 61.9223 3.50999C61.9211 3.50999 61.9198 3.50999 61.9186 3.50999C61.9174 3.50999 61.9161 3.50999 61.9149 3.50999C61.9136 3.50999 61.9124 3.50999 61.9111 3.50999C61.9099 3.50999 61.9086 3.50999 61.9074 3.50999C61.9061 3.50999 61.9049 3.50999 61.9036 3.50999C61.9024 3.50999 61.9011 3.50999 61.8999 3.50999C61.8986 3.50999 61.8974 3.50999 61.8961 3.50999C61.8949 3.50999 61.8936 3.50999 61.8924 3.50999C61.8912 3.50999 61.8899 3.50999 61.8887 3.50999C61.8874 3.50999 61.8862 3.50999 61.8849 3.50999C61.8837 3.50999 61.8824 3.50999 61.8812 3.50999C61.8799 3.50999 61.8787 3.50999 61.8774 3.50999C61.8762 3.50999 61.8749 3.50999 61.8737 3.50999C61.8724 3.50999 61.8712 3.50999 61.8699 3.50999C61.8687 3.50999 61.8674 3.50999 61.8662 3.50999C61.8649 3.50999 61.8637 3.50999 61.8624 3.50999C61.8612 3.50999 61.8599 3.50999 61.8587 3.50999C61.8575 3.50999 61.8562 3.50999 61.855 3.50999C61.8537 3.50999 61.8525 3.50999 61.8512 3.50999C61.85 3.50999 61.8487 3.50999 61.8475 3.50999C61.8462 3.50999 61.845 3.50999 61.8437 3.50999C61.8425 3.50999 61.8412 3.50999 61.84 3.50999C61.8387 3.50999 61.8375 3.50999 61.8362 3.50999C61.835 3.50999 61.8337 3.50999 61.8325 3.50999C61.8312 3.50999 61.83 3.50999 61.8287 3.50999C61.8275 3.50999 61.8262 3.50999 61.825 3.50999C61.8237 3.50999 61.8225 3.50999 61.8212 3.50999C61.82 3.50999 61.8187 3.50999 61.8175 3.50999C61.8162 3.50999 61.815 3.50999 61.8137 3.50999C61.8125 3.50999 61.8112 3.50999 61.81 3.50999C61.8087 3.50999 61.8075 3.50999 61.8062 3.50999C61.805 3.50999 61.8037 3.50999 61.8025 3.50999C61.8012 3.50999 61.8 3.50999 61.7987 3.50999C61.7975 3.50999 61.7962 3.50999 61.795 3.50999C61.7937 3.50999 61.7925 3.50999 61.7912 3.50999C61.79 3.50999 61.7887 3.50999 61.7875 3.50999C61.7862 3.50999 61.785 3.50999 61.7837 3.50999C61.7825 3.50999 61.7812 3.50999 61.78 3.50999V4.50999ZM38.7904 9.05234C41.3146 8.01311 43.9058 7.14494 46.5466 6.45371L46.2934 5.4863C43.6092 6.18889 40.9753 7.07133 38.4097 8.12765L38.7904 9.05234ZM29.6769 13.7628C32.1625 12.194 34.7612 10.8118 37.4514 9.62763L37.0486 8.71237C34.313 9.91648 31.6706 11.3219 29.1431 12.9172L29.6769 13.7628ZM16.9518 24.4943C18.9555 22.2656 21.1236 20.1904 23.4377 18.2861L22.8023 17.5139C20.4495 19.45 18.2453 21.5598 16.2082 23.8257L16.9518 24.4943ZM10.8618 32.5085C12.2881 30.2676 13.8618 28.124 15.5725 26.092L14.8075 25.448C13.0682 27.5139 11.4682 29.6932 10.0182 31.9715L10.8618 32.5085ZM5.56598 42.9813C6.57844 40.3789 7.77141 37.8505 9.13621 35.4144L8.26379 34.9256C6.87624 37.4023 5.66337 39.973 4.63403 42.6187L5.56598 42.9813ZM2.33331 54.7915C2.84419 51.6987 3.60022 48.6515 4.59421 45.6785L3.64581 45.3614C2.63501 48.3846 1.8662 51.4834 1.34668 54.6285L2.33331 54.7915ZM1.60914 68.3506C1.53963 67.1691 1.5 65.979 1.5 64.79H0.5C0.5 66.001 0.540366 67.2109 0.610863 68.4094L1.60914 68.3506ZM1.5 64.79C1.5 62.7176 1.60907 60.674 1.80759 58.659L0.812407 58.561C0.610923 60.606 0.5 62.6824 0.5 64.79H1.5ZM4.2869 82.9598C3.23404 79.6171 2.47411 76.1891 2.01571 72.7146L1.0243 72.8454C1.49029 76.3774 2.2628 79.8622 3.33309 83.2602L4.2869 82.9598ZM8.68994 93.3524C7.33909 90.8511 6.16923 88.2562 5.18936 85.5876L4.25064 85.9323C5.24698 88.6457 6.4365 91.2843 7.81006 93.8276L8.68994 93.3524ZM15.5138 103.43C13.5084 101.027 11.6913 98.474 10.0785 95.7923L9.22153 96.3077C10.8608 99.0334 12.7078 101.629 14.7462 104.07L15.5138 103.43ZM25.4513 112.891C22.9825 111.027 20.6615 108.974 18.5092 106.752L17.7909 107.448C19.9791 109.707 22.3388 111.794 24.8487 113.689L25.4513 112.891ZM36.6493 119.596C34.181 118.458 31.7919 117.156 29.4982 115.698L28.9618 116.542C31.2933 118.024 33.7217 119.348 36.2307 120.504L36.6493 119.596ZM46.1585 123.017C43.4804 122.304 40.8562 121.403 38.3055 120.32L37.9145 121.24C40.5087 122.342 43.1777 123.259 45.9015 123.983L46.1585 123.017ZM57.0683 124.881C54.1136 124.654 51.1801 124.207 48.2921 123.543L48.0679 124.517C51.0045 125.193 53.9874 125.648 56.9917 125.879L57.0683 124.881ZM67.0978 124.832C65.3411 124.981 63.5652 125.06 61.78 125.06V126.06C63.5948 126.06 65.3989 125.979 67.1822 125.828L67.0978 124.832ZM61.78 125.06C60.887 125.06 60.0142 125.06 59.154 125.001L59.086 125.999C59.9858 126.06 60.893 126.06 61.78 126.06V125.06ZM76.8153 123.166C74.2881 123.817 71.7208 124.3 69.13 124.614L69.25 125.606C71.8844 125.288 74.495 124.796 77.0647 124.134L76.8153 123.166ZM86.8432 119.615C84.2319 120.801 81.5375 121.795 78.7815 122.59L79.0585 123.55C81.8611 122.743 84.6012 121.732 87.2568 120.525L86.8432 119.615ZM98.357 112.722C95.4677 114.924 92.3873 116.862 89.1526 118.515L89.6075 119.405C92.8954 117.726 96.0264 115.755 98.963 113.518L98.357 112.722ZM106.886 104.768C104.703 107.231 102.321 109.509 99.7652 111.582L100.395 112.358C102.994 110.252 105.415 107.935 107.634 105.432L106.886 104.768ZM114.136 94.6716C112.561 97.4236 110.77 100.047 108.781 102.516L109.559 103.144C111.582 100.633 113.402 97.9662 115.004 95.1684L114.136 94.6716ZM118.897 84.0892C117.897 87.0308 116.667 89.8889 115.218 92.6367L116.102 93.1033C117.576 90.3088 118.827 87.4023 119.843 84.4108L118.897 84.0892ZM106.787 24.7026C108.316 26.4188 109.746 28.2202 111.071 30.0983L111.889 29.5217C110.542 27.6128 109.087 25.7818 107.533 24.0374L106.787 24.7026ZM100.686 18.7509C102.346 20.163 103.933 21.6598 105.439 23.2355L106.161 22.5445C104.632 20.944 103.02 19.4235 101.334 17.9891L100.686 18.7509ZM87.2188 10.1332C89.6972 11.2884 92.0928 12.6138 94.3883 14.0997L94.9317 13.2603C92.5975 11.7492 90.1615 10.4015 87.6412 9.2268L87.2188 10.1332ZM77.0149 6.4541C79.7184 7.15273 82.3694 8.04081 84.9482 9.11176L85.3318 8.18823C82.7096 7.09928 80.0141 6.19628 77.2651 5.4859L77.0149 6.4541ZM66.303 4.67862C69.0879 4.88513 71.855 5.28611 74.5839 5.87862L74.7961 4.90138C72.0216 4.29899 69.2083 3.89132 66.377 3.68136L66.303 4.67862ZM23.763 12.3205L27.053 16.9305L27.867 16.3495L24.577 11.7395L23.763 12.3205ZM46.9325 2.06129L48.1425 7.36129L49.1175 7.13871L47.9075 1.83871L46.9325 2.06129ZM51.5057 1.0754L52.3157 6.3854L53.3043 6.2346L52.4943 0.924601L51.5057 1.0754ZM98.9722 11.3707L95.4822 16.2907L96.2978 16.8693L99.7878 11.9493L98.9722 11.3707ZM102.04 13.8267L98.3903 18.3667L99.1697 18.9933L102.82 14.4533L102.04 13.8267ZM115.865 28.4925L110.675 31.9125L111.225 32.7475L116.415 29.3275L115.865 28.4925ZM118.165 72.5615C116.291 86.1119 109.598 98.5337 99.3127 107.552L99.9719 108.304C110.438 99.1272 117.249 86.487 119.155 72.6985L118.165 72.5615ZM99.3127 107.552C89.0269 116.57 75.8366 121.581 62.1576 121.667L62.1638 122.667C76.0833 122.579 89.5054 117.48 99.9719 108.304L99.3127 107.552ZM62.1576 121.667C48.4785 121.752 35.2265 116.907 24.8285 108.019L24.1787 108.779C34.7594 117.824 48.2444 122.754 62.1638 122.667L62.1576 121.667ZM24.8285 108.019C14.4306 99.1301 7.5828 86.7931 5.53942 73.2673L4.55064 73.4167C6.62993 87.1802 13.598 99.734 24.1787 108.779L24.8285 108.019ZM5.53942 73.2673C3.49604 59.7415 6.39383 45.9322 13.702 34.3687L12.8567 33.8345C5.42006 45.6012 2.47135 59.6531 4.55064 73.4167L5.53942 73.2673ZM13.702 34.3687C21.0102 22.8053 32.2397 14.2617 45.3336 10.3027L45.0442 9.34554C31.7201 13.3741 20.2934 22.0678 12.8567 33.8345L13.702 34.3687ZM45.3336 10.3027C58.4275 6.34382 72.5094 7.23455 85.0001 12.8118L85.4078 11.8987C72.6976 6.22342 58.3682 5.31703 45.0442 9.34554L45.3336 10.3027ZM85.0001 12.8118C97.4908 18.3891 107.554 28.2796 113.347 40.6717L114.253 40.2483C108.358 27.6383 98.118 17.574 85.4078 11.8987L85.0001 12.8118ZM72.41 64.79C72.41 70.6608 67.6508 75.42 61.78 75.42V76.42C68.2031 76.42 73.41 71.2131 73.41 64.79H72.41ZM61.78 75.42C55.9092 75.42 51.15 70.6608 51.15 64.79H50.15C50.15 71.2131 55.3569 76.42 61.78 76.42V75.42ZM51.15 64.79C51.15 58.9192 55.9092 54.16 61.78 54.16V53.16C55.3569 53.16 50.15 58.3669 50.15 64.79H51.15ZM61.78 54.16C67.6508 54.16 72.41 58.9192 72.41 64.79H73.41C73.41 58.3669 68.2031 53.16 61.78 53.16V54.16ZM63.4 64.79C63.4 65.6847 62.6747 66.41 61.78 66.41V67.41C63.227 67.41 64.4 66.237 64.4 64.79H63.4ZM61.78 66.41C60.8853 66.41 60.16 65.6847 60.16 64.79H59.16C59.16 66.237 60.333 67.41 61.78 67.41V66.41ZM60.16 64.79C60.16 63.8953 60.8853 63.17 61.78 63.17V62.17C60.333 62.17 59.16 63.343 59.16 64.79H60.16ZM61.78 63.17C62.6747 63.17 63.4 63.8953 63.4 64.79H64.4C64.4 63.343 63.227 62.17 61.78 62.17V63.17Z" fill="#F8F8F8"/>
</svg>
