<svg width="219" height="135" viewBox="0 0 219 135" fill="none" xmlns="http://www.w3.org/2000/svg">
<path d="M1 16.4001L4.27015 42.3523L5.21676 14.765L8.68362 42.3523L9.94988 14.765L13.5274 42.3523L15.3223 14.765L18.6908 42.3523L20.0677 14.765L22.7969 42.3523L24.8008 14.765L27.6529 42.3523L29.7552 14.765L32.9147 42.3523L34.9186 14.765L37.8691 33.2303H58.0924V48.1058H63.0468V51.1424H68.0995V26.1737L69.7838 30.1815V27.2555L70.4107 26.604V24.3173L71.468 25.0795V22.1536L71.9966 21.3914L72.9432 18.7851V22.6945L74.0989 22.043V28.6693L74.8365 27.0343V30.2921L75.7831 28.0178L76.4224 26.3827L77.369 27.9071V34.0909L78.1066 32.4681V38.3322L79.0533 37.1398L79.3606 39.7952L79.8647 32.0993L80.2212 28.5218L80.7375 23.9608L81.4506 29.8987L82.2374 26.1614L82.7537 22.4118L83.3807 27.2924L83.9831 26.8867V30.7593L84.6838 30.7962L84.8437 32.9599L85.6796 30.5994L85.9132 25.5098L86.4295 21.1824L87.1795 14.9617L87.8065 19.9653L88.3597 19.8424L88.7162 27.3416L89.0727 27.3785V29.9479L90.0685 26.69L90.9659 25.4607L91.6421 29.6159L92.515 32.6279L92.7854 36.4636L93.4247 36.5865L93.6952 41.2213L94.482 39.8813L94.7278 30.5994L95.318 28.1161L96.1048 28.6816L96.3384 22.9035L97.6906 22.4487L98.2808 19.031L98.834 13.5357L99.7437 15.4904L100.248 28.03L101.367 21.9569L103.014 32.3452L104.083 30.2675L104.563 32.923L104.87 33.8573L105.387 32.3452L105.866 33.4885V35.517L107.599 36.8324V47.1346H114.545V50.2695H117.914V26.4441L119.377 28.7677L120.004 27.7842L120.557 21.6373L121.664 22.4118L122.45 21.8832L123.643 16.8304L125.057 19.3138V23.5551H126.003V27.9071L126.606 28.6816L127.356 25.3869L129.052 27.1695V30.7224L129.642 32.8369L130.195 36.8324L131.339 36.0087L131.732 38.1232L132.728 35.812L133.355 30.3905L134.461 25.2639L135.371 21.2316L136.121 22.4487L136.748 26.813L137.424 21.7233L138.371 19.3998L139.084 21.2316L139.354 25.3869L140.35 27.9932L140.94 25.3377L141.37 20.2481L142.12 14.1872L143.583 14.4331V24.932L144.923 22.7314V25.5836L145.673 24.932V30.5994L146.276 30.3167V34.0171H146.706V37.4348L147.222 37.0291V28.7185L147.579 29.0136V21.6004L148.439 21.3914L149.042 20.494L149.435 12.7612L150.222 16.3018L150.849 14.5929L151.132 20.58V25.9893L152.201 20.8259L152.988 31.9518L153.701 32.5542L153.935 30.3536L155.004 31.4108V34.4597L157.291 35.9349V47.0117H163.77V49.5688H168.355V25.8295L169.376 26.395L170.052 29.0504L170.679 28.8906L170.962 25.7926V23.9977L172.621 18.2934L173.334 20.3341L173.888 18.6622L174.551 19.6457L174.945 15.4412L175.977 14.3471L177.207 16.5845V19.8424L177.834 20.6169L178.067 23.1863L178.977 23.1002L179.26 19.7195L180.563 20.8628V23.8747L181.51 24.2436V25.6328L182.063 27.6612L182.493 30.7593L183.243 33.2057L183.526 35.5661L184.227 37.5946L185.382 34.6687V30.1446L186.009 30.0216L186.366 25.7926L186.845 25.6696V21.6004L187.239 21.3053V18.5024L188.616 19.3506V21.4283L189.169 22.5716L189.55 24.8951L190.828 18.3425L191.578 20.1251L192.132 25.0918L192.525 24.5632L192.881 18.5884L193.238 18.4163V15.2814H193.521L193.754 12.5153L193.988 15.2076L194.381 15.1216V19.7563L194.738 19.7195V23.6289L195.254 22.2028V25.055L196.275 22.6085V25.8295L196.988 25.141V28.7185L197.344 28.4726V32.2714L198.057 32.1854L198.291 36.6234L198.537 28.8046L199.2 28.2759V25.6696L199.914 24.3173L200.196 22.6577V18.3425L200.59 17.3959V12.3555L201.34 13.4496L201.696 22.3626L202.053 20.6169L202.606 25.2639L203.516 20.9488L204.302 32.2222L206.036 33.3287V35.9718L207.069 36.0087L207.818 34.7916L208.765 35.517V46.5568H215.084V49.1262H217.604V26.0385" stroke="#F8F8F8" stroke-linecap="round" stroke-linejoin="round"/>
<path d="M88.433 1.30322H87.2773V9.23271H88.433V1.30322Z" fill="#F8F8F8"/>
<path d="M146.373 4.33984H139.943V5.53234H146.373V4.33984Z" fill="#F8F8F8"/>
<path d="M138.248 0.651367H137.093V9.23243H138.248V0.651367Z" fill="#F8F8F8"/>
<path d="M191.972 0H190.816V8.58106H191.972V0Z" fill="#F8F8F8"/>
<path d="M196.398 0H195.242V8.58106H196.398V0Z" fill="#F8F8F8"/>
<path d="M90.598 82.6758H89.4424V90.6053H90.598V82.6758Z" fill="#F8F8F8"/>
<path d="M149.46 87.0771H143.03V88.2696H149.46V87.0771Z" fill="#F8F8F8"/>
<path d="M141.026 83.3765H139.87V91.9575H141.026V83.3765Z" fill="#F8F8F8"/>
<path d="M185.899 82.4053H184.743V90.9863H185.899V82.4053Z" fill="#F8F8F8"/>
<path d="M190.324 82.4053H189.168V90.9863H190.324V82.4053Z" fill="#F8F8F8"/>
<path d="M59.5309 56.2563H58.2646V66.5708H59.5309V56.2563Z" fill="white" stroke="#F8F8F8" stroke-width="0.8" stroke-miterlimit="10"/>
<path d="M119.611 55.2729H118.345V67.5421H119.611V55.2729Z" fill="white" stroke="#F8F8F8" stroke-width="0.8" stroke-miterlimit="10"/>
<path d="M65.2109 55.9858V62.2925" stroke="#F8F8F8" stroke-miterlimit="10"/>
<path d="M74.8115 56.0845V62.3789" stroke="#F8F8F8" stroke-miterlimit="10"/>
<path d="M77.6514 56.1577V62.4644" stroke="#F8F8F8" stroke-miterlimit="10"/>
<path d="M86.4297 56.2563V62.5508" stroke="#F8F8F8" stroke-miterlimit="10"/>
<path d="M100.334 55.8999V62.2066" stroke="#F8F8F8" stroke-miterlimit="10"/>
<path d="M103.789 55.8135V62.1079" stroke="#F8F8F8" stroke-miterlimit="10"/>
<path d="M67.0049 58.9609H72.3773" stroke="#F8F8F8" stroke-miterlimit="10"/>
<path d="M79.2861 58.9609H84.6585" stroke="#F8F8F8" stroke-miterlimit="10"/>
<path d="M88.5068 58.9609H93.5719" stroke="#F8F8F8" stroke-miterlimit="10"/>
<path d="M94.7285 58.9609H98.5273" stroke="#F8F8F8" stroke-miterlimit="10"/>
<path d="M105.509 58.9609H109.935" stroke="#F8F8F8" stroke-miterlimit="10"/>
<path d="M111.484 58.9609H116.23" stroke="#F8F8F8" stroke-miterlimit="10"/>
<path d="M76.0166 66.2388H81.0817" stroke="#F8F8F8" stroke-miterlimit="10"/>
<path d="M82.876 66.2388H87.9287" stroke="#F8F8F8" stroke-miterlimit="10"/>
<path d="M89.4053 66.2388H94.4703" stroke="#F8F8F8" stroke-miterlimit="10"/>
<path d="M95.9453 66.2388H100.998" stroke="#F8F8F8" stroke-miterlimit="10"/>
<path d="M102.485 66.2388H107.218" stroke="#F8F8F8" stroke-miterlimit="10"/>
<path d="M108.693 66.2388H113.758" stroke="#F8F8F8" stroke-miterlimit="10"/>
<path d="M69.4883 66.2388H74.541" stroke="#F8F8F8" stroke-miterlimit="10"/>
<path d="M63.2686 66.2388H68.014" stroke="#F8F8F8" stroke-miterlimit="10"/>
<path d="M89.3555 71.2427H94.7278" stroke="#F8F8F8" stroke-miterlimit="10"/>
<path d="M96.3145 71.2427H101.687" stroke="#F8F8F8" stroke-miterlimit="10"/>
<path d="M82.7168 71.2427H88.0892" stroke="#F8F8F8" stroke-miterlimit="10"/>
<path d="M75.7588 71.2427H81.1312" stroke="#F8F8F8" stroke-miterlimit="10"/>
<path d="M66.3535 88.2695L104.538 129.122L116.377 91.9577L154.143 131.716L166.302 92.6215L204.069 133.99L214.973 93.7649L217.813 97.3424" stroke="#F8F8F8" stroke-linecap="round" stroke-linejoin="round"/>
<path d="M71.6761 96.9365C73.2717 96.9365 74.5652 95.6045 74.5652 93.9614C74.5652 92.3183 73.2717 90.9863 71.6761 90.9863C70.0805 90.9863 68.7871 92.3183 68.7871 93.9614C68.7871 95.6045 70.0805 96.9365 71.6761 96.9365Z" stroke="#F8F8F8" stroke-miterlimit="10"/>
<path d="M79.766 105.604C81.3616 105.604 82.655 104.272 82.655 102.628C82.655 100.985 81.3616 99.6533 79.766 99.6533C78.1704 99.6533 76.877 100.985 76.877 102.628C76.877 104.272 78.1704 105.604 79.766 105.604Z" stroke="#F8F8F8" stroke-miterlimit="10"/>
<path d="M124.539 103.354C126.135 103.354 127.428 102.022 127.428 100.379C127.428 98.7358 126.135 97.4038 124.539 97.4038C122.944 97.4038 121.65 98.7358 121.65 100.379C121.65 102.022 122.944 103.354 124.539 103.354Z" stroke="#F8F8F8" stroke-miterlimit="10"/>
<path d="M131.597 110.964C133.193 110.964 134.486 109.632 134.486 107.989C134.486 106.346 133.193 105.014 131.597 105.014C130.001 105.014 128.708 106.346 128.708 107.989C128.708 109.632 130.001 110.964 131.597 110.964Z" stroke="#F8F8F8" stroke-miterlimit="10"/>
<path d="M170.679 100.379C172.275 100.379 173.568 99.0469 173.568 97.4038C173.568 95.7607 172.275 94.4287 170.679 94.4287C169.083 94.4287 167.79 95.7607 167.79 97.4038C167.79 99.0469 169.083 100.379 170.679 100.379Z" stroke="#F8F8F8" stroke-miterlimit="10"/>
<path d="M177.908 108.321C179.503 108.321 180.797 106.989 180.797 105.346C180.797 103.703 179.503 102.371 177.908 102.371C176.312 102.371 175.019 103.703 175.019 105.346C175.019 106.989 176.312 108.321 177.908 108.321Z" stroke="#F8F8F8" stroke-miterlimit="10"/>
</svg>
